<mxfile host="app.diagrams.net" modified="2020-10-12T16:58:20.264Z" agent="5.0 (Macintosh; Intel Mac OS X 10_14_6) AppleWebKit/537.36 (KHTML, like Gecko) Chrome/85.0.4183.121 Safari/537.36" etag="prYxUm5vDX9P_6v8dY_0" version="13.7.9" type="github">
  <diagram id="V1Vt3t-gvWR1uWZImgzx" name="Page-1">
    <mxGraphModel dx="925" dy="483" grid="1" gridSize="10" guides="1" tooltips="1" connect="1" arrows="1" fold="1" page="1" pageScale="1" pageWidth="850" pageHeight="1100" math="0" shadow="0">
      <root>
        <mxCell id="0" />
        <mxCell id="1" parent="0" />
        <mxCell id="DqZF1T1k3552ePXCRRWf-1" value="AWS Cloud" style="points=[[0,0],[0.25,0],[0.5,0],[0.75,0],[1,0],[1,0.25],[1,0.5],[1,0.75],[1,1],[0.75,1],[0.5,1],[0.25,1],[0,1],[0,0.75],[0,0.5],[0,0.25]];outlineConnect=0;html=1;whiteSpace=wrap;fontSize=12;fontStyle=0;shape=mxgraph.aws4.group;grIcon=mxgraph.aws4.group_aws_cloud_alt;verticalAlign=top;align=left;spacingLeft=30;dashed=0;" parent="1" vertex="1">
          <mxGeometry x="10" y="40" width="1150" height="580" as="geometry" />
        </mxCell>
        <mxCell id="DqZF1T1k3552ePXCRRWf-12" value="Customer Account A" style="strokeColor=#9673a6;dashed=1;verticalAlign=top;fontStyle=0;align=center;fillColor=#E6E6E6;" parent="1" vertex="1">
          <mxGeometry x="170" y="70" width="630" height="530" as="geometry" />
        </mxCell>
        <mxCell id="nQkquUUah0399Bla8zBt-5" value="" style="fillColor=none;strokeColor=#5A6C86;dashed=1;verticalAlign=top;fontStyle=0;fontColor=#5A6C86;align=center;" parent="1" vertex="1">
          <mxGeometry x="530" y="507.5" width="236" height="50" as="geometry" />
        </mxCell>
        <mxCell id="nQkquUUah0399Bla8zBt-3" value="" style="fillColor=none;strokeColor=#5A6C86;dashed=1;verticalAlign=top;fontStyle=0;fontColor=#5A6C86;align=center;" parent="1" vertex="1">
          <mxGeometry x="530" y="342.5" width="236" height="50" as="geometry" />
        </mxCell>
        <mxCell id="DqZF1T1k3552ePXCRRWf-7" value="Amazon MSK" style="group;spacingRight=0;spacingLeft=20;align=left;fillColor=#b1ddf0;strokeColor=#10739e;container=0;spacing=0;" parent="1" vertex="1" connectable="0">
          <mxGeometry x="50" y="70" width="110" height="530" as="geometry" />
        </mxCell>
        <mxCell id="DqZF1T1k3552ePXCRRWf-13" value="Customer Account B" style="fillColor=#e1d5e7;strokeColor=#9673a6;dashed=1;verticalAlign=top;fontStyle=0;align=center;" parent="1" vertex="1">
          <mxGeometry x="860" y="70" width="280" height="530" as="geometry" />
        </mxCell>
        <mxCell id="DqZF1T1k3552ePXCRRWf-14" value="MSK VPC" style="points=[[0,0],[0.25,0],[0.5,0],[0.75,0],[1,0],[1,0.25],[1,0.5],[1,0.75],[1,1],[0.75,1],[0.5,1],[0.25,1],[0,1],[0,0.75],[0,0.5],[0,0.25]];outlineConnect=0;gradientColor=none;html=1;whiteSpace=wrap;fontSize=12;fontStyle=0;shape=mxgraph.aws4.group;grIcon=mxgraph.aws4.group_vpc;strokeColor=#248814;fillColor=none;verticalAlign=top;align=left;spacingLeft=30;fontColor=#AAB7B8;dashed=0;" parent="1" vertex="1">
          <mxGeometry x="200" y="100" width="320" height="490" as="geometry" />
        </mxCell>
        <mxCell id="DqZF1T1k3552ePXCRRWf-15" value="AZ1" style="fillColor=none;strokeColor=#147EBA;dashed=1;verticalAlign=top;fontStyle=0;fontColor=#147EBA;align=right;horizontal=0;spacing=0;spacingRight=4;" parent="1" vertex="1">
          <mxGeometry x="180" y="140" width="330" height="130" as="geometry" />
        </mxCell>
        <mxCell id="DqZF1T1k3552ePXCRRWf-16" value="AZ2" style="fillColor=none;strokeColor=#147EBA;dashed=1;verticalAlign=top;fontStyle=0;fontColor=#147EBA;align=right;horizontal=0;spacing=0;spacingRight=4;" parent="1" vertex="1">
          <mxGeometry x="180" y="290.5" width="330" height="130" as="geometry" />
        </mxCell>
        <mxCell id="DqZF1T1k3552ePXCRRWf-17" value="AZ3" style="fillColor=none;strokeColor=#147EBA;dashed=1;verticalAlign=top;fontStyle=0;fontColor=#147EBA;align=right;horizontal=0;spacing=0;spacingRight=4;" parent="1" vertex="1">
          <mxGeometry x="180" y="452.5" width="330" height="130" as="geometry" />
        </mxCell>
        <mxCell id="YOj0RfPdQwlDos6cRO1P-2" value="Clients VPC - 10.0.0.0/16" style="points=[[0,0],[0.25,0],[0.5,0],[0.75,0],[1,0],[1,0.25],[1,0.5],[1,0.75],[1,1],[0.75,1],[0.5,1],[0.25,1],[0,1],[0,0.75],[0,0.5],[0,0.25]];outlineConnect=0;gradientColor=none;html=1;whiteSpace=wrap;fontSize=12;fontStyle=0;shape=mxgraph.aws4.group;grIcon=mxgraph.aws4.group_vpc;strokeColor=#248814;fillColor=none;verticalAlign=top;align=left;spacingLeft=30;fontColor=#AAB7B8;dashed=0;" parent="1" vertex="1">
          <mxGeometry x="875" y="136" width="240" height="454" as="geometry" />
        </mxCell>
        <mxCell id="YOj0RfPdQwlDos6cRO1P-3" value="AZ1" style="fillColor=none;strokeColor=#147EBA;dashed=1;verticalAlign=top;fontStyle=0;fontColor=#147EBA;align=right;horizontal=0;spacing=0;spacingRight=4;" parent="1" vertex="1">
          <mxGeometry x="902.5" y="161" width="220" height="129" as="geometry" />
        </mxCell>
        <mxCell id="YOj0RfPdQwlDos6cRO1P-4" value="AZ2" style="fillColor=none;strokeColor=#147EBA;dashed=1;verticalAlign=top;fontStyle=0;fontColor=#147EBA;align=right;horizontal=0;spacing=0;spacingRight=4;" parent="1" vertex="1">
          <mxGeometry x="904.5" y="313" width="220" height="127" as="geometry" />
        </mxCell>
        <mxCell id="YOj0RfPdQwlDos6cRO1P-5" value="AZ3" style="fillColor=none;strokeColor=#147EBA;dashed=1;verticalAlign=top;fontStyle=0;fontColor=#147EBA;align=right;horizontal=0;spacing=0;spacingRight=4;" parent="1" vertex="1">
          <mxGeometry x="902" y="457.5" width="220" height="122.5" as="geometry" />
        </mxCell>
        <mxCell id="YOj0RfPdQwlDos6cRO1P-7" value="Private subnet - 10.0.1.0/24" style="points=[[0,0],[0.25,0],[0.5,0],[0.75,0],[1,0],[1,0.25],[1,0.5],[1,0.75],[1,1],[0.75,1],[0.5,1],[0.25,1],[0,1],[0,0.75],[0,0.5],[0,0.25]];outlineConnect=0;gradientColor=none;html=1;whiteSpace=wrap;fontSize=12;fontStyle=0;shape=mxgraph.aws4.group;grIcon=mxgraph.aws4.group_security_group;grStroke=0;strokeColor=#147EBA;fillColor=#E6F2F8;verticalAlign=top;align=left;spacingLeft=30;fontColor=#147EBA;dashed=0;" parent="1" vertex="1">
          <mxGeometry x="210" y="150" width="290" height="110" as="geometry" />
        </mxCell>
        <mxCell id="YOj0RfPdQwlDos6cRO1P-8" value="Private subnet - 10.0.2.0/24" style="points=[[0,0],[0.25,0],[0.5,0],[0.75,0],[1,0],[1,0.25],[1,0.5],[1,0.75],[1,1],[0.75,1],[0.5,1],[0.25,1],[0,1],[0,0.75],[0,0.5],[0,0.25]];outlineConnect=0;gradientColor=none;html=1;whiteSpace=wrap;fontSize=12;fontStyle=0;shape=mxgraph.aws4.group;grIcon=mxgraph.aws4.group_security_group;grStroke=0;strokeColor=#147EBA;fillColor=#E6F2F8;verticalAlign=top;align=left;spacingLeft=30;fontColor=#147EBA;dashed=0;" parent="1" vertex="1">
          <mxGeometry x="210" y="300.5" width="290" height="110" as="geometry" />
        </mxCell>
        <mxCell id="YOj0RfPdQwlDos6cRO1P-9" value="Private subnet - 10.0.3.0/24" style="points=[[0,0],[0.25,0],[0.5,0],[0.75,0],[1,0],[1,0.25],[1,0.5],[1,0.75],[1,1],[0.75,1],[0.5,1],[0.25,1],[0,1],[0,0.75],[0,0.5],[0,0.25]];outlineConnect=0;gradientColor=none;html=1;whiteSpace=wrap;fontSize=12;fontStyle=0;shape=mxgraph.aws4.group;grIcon=mxgraph.aws4.group_security_group;grStroke=0;strokeColor=#147EBA;fillColor=#E6F2F8;verticalAlign=top;align=left;spacingLeft=30;fontColor=#147EBA;dashed=0;" parent="1" vertex="1">
          <mxGeometry x="210" y="462.5" width="290" height="110" as="geometry" />
        </mxCell>
        <mxCell id="YOj0RfPdQwlDos6cRO1P-10" value="Private subnet" style="points=[[0,0],[0.25,0],[0.5,0],[0.75,0],[1,0],[1,0.25],[1,0.5],[1,0.75],[1,1],[0.75,1],[0.5,1],[0.25,1],[0,1],[0,0.75],[0,0.5],[0,0.25]];outlineConnect=0;gradientColor=none;html=1;whiteSpace=wrap;fontSize=12;fontStyle=0;shape=mxgraph.aws4.group;grIcon=mxgraph.aws4.group_security_group;grStroke=0;strokeColor=#147EBA;fillColor=#E6F2F8;verticalAlign=top;align=left;spacingLeft=25;fontColor=#147EBA;dashed=0;" parent="1" vertex="1">
          <mxGeometry x="922.5" y="171" width="180" height="109" as="geometry" />
        </mxCell>
        <mxCell id="YOj0RfPdQwlDos6cRO1P-11" value="Private subnet" style="points=[[0,0],[0.25,0],[0.5,0],[0.75,0],[1,0],[1,0.25],[1,0.5],[1,0.75],[1,1],[0.75,1],[0.5,1],[0.25,1],[0,1],[0,0.75],[0,0.5],[0,0.25]];outlineConnect=0;gradientColor=none;html=1;whiteSpace=wrap;fontSize=12;fontStyle=0;shape=mxgraph.aws4.group;grIcon=mxgraph.aws4.group_security_group;grStroke=0;strokeColor=#147EBA;fillColor=#E6F2F8;verticalAlign=top;align=left;spacingLeft=25;fontColor=#147EBA;dashed=0;" parent="1" vertex="1">
          <mxGeometry x="924.5" y="323.5" width="180" height="106.5" as="geometry" />
        </mxCell>
        <mxCell id="YOj0RfPdQwlDos6cRO1P-12" value="Private subnet" style="points=[[0,0],[0.25,0],[0.5,0],[0.75,0],[1,0],[1,0.25],[1,0.5],[1,0.75],[1,1],[0.75,1],[0.5,1],[0.25,1],[0,1],[0,0.75],[0,0.5],[0,0.25]];outlineConnect=0;gradientColor=none;html=1;whiteSpace=wrap;fontSize=12;fontStyle=0;shape=mxgraph.aws4.group;grIcon=mxgraph.aws4.group_security_group;grStroke=0;strokeColor=#147EBA;fillColor=#E6F2F8;verticalAlign=top;align=left;spacingLeft=25;fontColor=#147EBA;dashed=0;" parent="1" vertex="1">
          <mxGeometry x="922" y="467.5" width="180" height="102.5" as="geometry" />
        </mxCell>
        <mxCell id="YOj0RfPdQwlDos6cRO1P-15" value="Security group" style="fillColor=none;strokeColor=#DD3522;verticalAlign=top;fontStyle=0;fontColor=#DD3522;align=right;fontSize=10;spacing=0;spacingRight=2;" parent="1" vertex="1">
          <mxGeometry x="220" y="332.5" width="270" height="75" as="geometry" />
        </mxCell>
        <mxCell id="YOj0RfPdQwlDos6cRO1P-16" value="Security group" style="fillColor=none;strokeColor=#DD3522;verticalAlign=top;fontStyle=0;fontColor=#DD3522;align=right;fontSize=10;spacing=0;spacingRight=2;" parent="1" vertex="1">
          <mxGeometry x="220" y="492.5" width="270" height="75" as="geometry" />
        </mxCell>
        <mxCell id="YOj0RfPdQwlDos6cRO1P-17" value="Security group" style="fillColor=none;strokeColor=#DD3522;verticalAlign=top;fontStyle=0;fontColor=#DD3522;align=right;fontSize=10;spacing=0;spacingLeft=0;spacingRight=2;" parent="1" vertex="1">
          <mxGeometry x="220" y="180" width="270" height="75" as="geometry" />
        </mxCell>
        <mxCell id="YOj0RfPdQwlDos6cRO1P-18" value="" style="outlineConnect=0;fontColor=#232F3E;gradientColor=none;fillColor=#5A30B5;strokeColor=none;dashed=0;verticalLabelPosition=bottom;verticalAlign=top;align=center;html=1;fontSize=12;fontStyle=0;aspect=fixed;pointerEvents=1;shape=mxgraph.aws4.elastic_network_interface;" parent="1" vertex="1">
          <mxGeometry x="270" y="351" width="30" height="30" as="geometry" />
        </mxCell>
        <mxCell id="YOj0RfPdQwlDos6cRO1P-19" value="" style="outlineConnect=0;fontColor=#232F3E;gradientColor=none;fillColor=#5A30B5;strokeColor=none;dashed=0;verticalLabelPosition=bottom;verticalAlign=top;align=center;html=1;fontSize=12;fontStyle=0;aspect=fixed;pointerEvents=1;shape=mxgraph.aws4.elastic_network_interface;" parent="1" vertex="1">
          <mxGeometry x="270" y="515" width="30" height="30" as="geometry" />
        </mxCell>
        <mxCell id="YOj0RfPdQwlDos6cRO1P-14" value="" style="outlineConnect=0;fontColor=#232F3E;gradientColor=none;fillColor=#5A30B5;strokeColor=none;dashed=0;verticalLabelPosition=bottom;verticalAlign=top;align=center;html=1;fontSize=12;fontStyle=0;aspect=fixed;pointerEvents=1;shape=mxgraph.aws4.elastic_network_interface;" parent="1" vertex="1">
          <mxGeometry x="270" y="202.5" width="30" height="30" as="geometry" />
        </mxCell>
        <mxCell id="YOj0RfPdQwlDos6cRO1P-60" value="" style="edgeStyle=orthogonalEdgeStyle;rounded=0;orthogonalLoop=1;jettySize=auto;html=1;endArrow=none;endFill=0;fontSize=10;exitX=1;exitY=0.5;exitDx=0;exitDy=0;entryX=0;entryY=0.5;entryDx=0;entryDy=0;" parent="1" source="YOj0RfPdQwlDos6cRO1P-20" target="YOj0RfPdQwlDos6cRO1P-44" edge="1">
          <mxGeometry relative="1" as="geometry">
            <Array as="points">
              <mxPoint x="650" y="218" />
            </Array>
          </mxGeometry>
        </mxCell>
        <mxCell id="YOj0RfPdQwlDos6cRO1P-72" value="tcp/9094" style="edgeLabel;html=1;align=center;verticalAlign=middle;resizable=0;points=[];fontSize=10;labelBackgroundColor=none;" parent="YOj0RfPdQwlDos6cRO1P-60" vertex="1" connectable="0">
          <mxGeometry x="1" y="-245" relative="1" as="geometry">
            <mxPoint x="-127" y="235" as="offset" />
          </mxGeometry>
        </mxCell>
        <mxCell id="YOj0RfPdQwlDos6cRO1P-20" value="MSK ENI&lt;br&gt;10.0.1.x&lt;font style=&quot;font-size: 10px&quot;&gt;&lt;br style=&quot;font-size: 10px&quot;&gt;&lt;/font&gt;" style="text;html=1;strokeColor=none;fillColor=none;align=center;verticalAlign=middle;whiteSpace=wrap;rounded=0;fontSize=10;" parent="1" vertex="1">
          <mxGeometry x="300" y="207.5" width="45" height="20" as="geometry" />
        </mxCell>
        <mxCell id="YOj0RfPdQwlDos6cRO1P-61" value="" style="edgeStyle=orthogonalEdgeStyle;rounded=0;orthogonalLoop=1;jettySize=auto;html=1;endArrow=none;endFill=0;fontSize=10;entryX=0;entryY=0.5;entryDx=0;entryDy=0;" parent="1" source="YOj0RfPdQwlDos6cRO1P-21" target="YOj0RfPdQwlDos6cRO1P-46" edge="1">
          <mxGeometry relative="1" as="geometry" />
        </mxCell>
        <mxCell id="YOj0RfPdQwlDos6cRO1P-21" value="MSK ENI&lt;br&gt;10.0.2.x&lt;font style=&quot;font-size: 10px&quot;&gt;&lt;br style=&quot;font-size: 10px&quot;&gt;&lt;/font&gt;" style="text;html=1;strokeColor=none;fillColor=none;align=center;verticalAlign=middle;whiteSpace=wrap;rounded=0;fontSize=10;" parent="1" vertex="1">
          <mxGeometry x="300" y="356" width="45" height="20" as="geometry" />
        </mxCell>
        <mxCell id="YOj0RfPdQwlDos6cRO1P-62" value="" style="edgeStyle=orthogonalEdgeStyle;rounded=0;orthogonalLoop=1;jettySize=auto;html=1;endArrow=none;endFill=0;fontSize=10;entryX=0;entryY=0.5;entryDx=0;entryDy=0;" parent="1" source="YOj0RfPdQwlDos6cRO1P-22" target="YOj0RfPdQwlDos6cRO1P-47" edge="1">
          <mxGeometry relative="1" as="geometry" />
        </mxCell>
        <mxCell id="YOj0RfPdQwlDos6cRO1P-22" value="MSK ENI&lt;br&gt;10.0.3.x&lt;font style=&quot;font-size: 10px&quot;&gt;&lt;br style=&quot;font-size: 10px&quot;&gt;&lt;/font&gt;" style="text;html=1;strokeColor=none;fillColor=none;align=center;verticalAlign=middle;whiteSpace=wrap;rounded=0;fontSize=10;" parent="1" vertex="1">
          <mxGeometry x="300" y="520" width="45" height="20" as="geometry" />
        </mxCell>
        <mxCell id="YOj0RfPdQwlDos6cRO1P-23" value="b-1.x.y.z.kafka.us-east-1.amazonaws.com:8443" style="text;html=1;strokeColor=none;fillColor=none;align=center;verticalAlign=middle;whiteSpace=wrap;rounded=0;fontSize=10;" parent="1" vertex="1">
          <mxGeometry x="240" y="227.5" width="220" height="20" as="geometry" />
        </mxCell>
        <mxCell id="YOj0RfPdQwlDos6cRO1P-24" value="b-2.x.y.z.kafka.us-east-1.amazonaws.com:8444" style="text;html=1;strokeColor=none;fillColor=none;align=center;verticalAlign=middle;whiteSpace=wrap;rounded=0;fontSize=10;" parent="1" vertex="1">
          <mxGeometry x="238" y="376" width="219" height="14" as="geometry" />
        </mxCell>
        <mxCell id="YOj0RfPdQwlDos6cRO1P-25" value="b-3.x.y.z.kafka.us-east-1.amazonaws.com:8445" style="text;html=1;strokeColor=none;fillColor=none;align=center;verticalAlign=middle;whiteSpace=wrap;rounded=0;fontSize=10;" parent="1" vertex="1">
          <mxGeometry x="235" y="540" width="240" height="20" as="geometry" />
        </mxCell>
        <mxCell id="YOj0RfPdQwlDos6cRO1P-28" value="" style="outlineConnect=0;fontColor=#232F3E;gradientColor=none;fillColor=#5A30B5;strokeColor=none;dashed=0;verticalLabelPosition=bottom;verticalAlign=top;align=center;html=1;fontSize=12;fontStyle=0;aspect=fixed;pointerEvents=1;shape=mxgraph.aws4.network_load_balancer;" parent="1" vertex="1">
          <mxGeometry x="628" y="155" width="40" height="40" as="geometry" />
        </mxCell>
        <mxCell id="YOj0RfPdQwlDos6cRO1P-29" value="VPC Endpoint 2&lt;br style=&quot;font-size: 10px&quot;&gt;&lt;p style=&quot;margin-top: 0pt ; margin-bottom: 0pt ; margin-left: 0in ; text-align: left ; direction: ltr ; unicode-bidi: embed ; word-break: normal ; font-size: 10px&quot;&gt;&lt;/p&gt;" style="outlineConnect=0;gradientColor=none;fillColor=#5A30B5;strokeColor=none;dashed=0;verticalLabelPosition=middle;verticalAlign=middle;align=right;html=1;fontSize=10;fontStyle=0;aspect=fixed;pointerEvents=1;shape=mxgraph.aws4.endpoints;spacingBottom=-27;horizontal=0;labelPosition=left;" parent="1" vertex="1">
          <mxGeometry x="851.5" y="346" width="44" height="44" as="geometry" />
        </mxCell>
        <mxCell id="YOj0RfPdQwlDos6cRO1P-85" value="" style="edgeStyle=none;rounded=0;orthogonalLoop=1;jettySize=auto;html=1;endArrow=none;endFill=0;fontSize=10;" parent="1" source="YOj0RfPdQwlDos6cRO1P-31" target="YOj0RfPdQwlDos6cRO1P-29" edge="1">
          <mxGeometry relative="1" as="geometry" />
        </mxCell>
        <mxCell id="YOj0RfPdQwlDos6cRO1P-31" value="VPC&amp;nbsp;Endpoint&lt;br style=&quot;font-size: 10px&quot;&gt;Service 2" style="outlineConnect=0;fontColor=#232F3E;gradientColor=#945DF2;gradientDirection=north;fillColor=#5A30B5;strokeColor=#ffffff;dashed=0;verticalLabelPosition=top;verticalAlign=bottom;align=center;html=1;fontSize=10;fontStyle=0;aspect=fixed;shape=mxgraph.aws4.resourceIcon;resIcon=mxgraph.aws4.vpc_privatelink;horizontal=1;labelPosition=center;" parent="1" vertex="1">
          <mxGeometry x="780" y="350" width="37" height="37" as="geometry" />
        </mxCell>
        <mxCell id="YOj0RfPdQwlDos6cRO1P-77" value="" style="rounded=0;orthogonalLoop=1;jettySize=auto;html=1;endArrow=none;endFill=0;fontSize=10;" parent="1" source="YOj0RfPdQwlDos6cRO1P-34" target="YOj0RfPdQwlDos6cRO1P-67" edge="1">
          <mxGeometry relative="1" as="geometry">
            <mxPoint x="1010.5" y="215" as="targetPoint" />
          </mxGeometry>
        </mxCell>
        <mxCell id="YOj0RfPdQwlDos6cRO1P-78" value="tcp/9094" style="edgeLabel;html=1;align=center;verticalAlign=middle;resizable=0;points=[];fontSize=10;labelBackgroundColor=none;" parent="YOj0RfPdQwlDos6cRO1P-77" vertex="1" connectable="0">
          <mxGeometry x="-0.5" y="-1" relative="1" as="geometry">
            <mxPoint x="25" y="-6.5" as="offset" />
          </mxGeometry>
        </mxCell>
        <mxCell id="nQkquUUah0399Bla8zBt-12" value="" style="rounded=0;orthogonalLoop=1;jettySize=auto;html=1;endArrow=none;endFill=0;" parent="1" source="YOj0RfPdQwlDos6cRO1P-34" edge="1">
          <mxGeometry relative="1" as="geometry">
            <mxPoint x="895.5" y="212.54054054054052" as="targetPoint" />
          </mxGeometry>
        </mxCell>
        <mxCell id="YOj0RfPdQwlDos6cRO1P-34" value="" style="outlineConnect=0;fontColor=#232F3E;gradientColor=none;fillColor=#5A30B5;strokeColor=none;dashed=0;verticalLabelPosition=bottom;verticalAlign=top;align=center;html=1;fontSize=12;fontStyle=0;aspect=fixed;pointerEvents=1;shape=mxgraph.aws4.elastic_network_interface;" parent="1" vertex="1">
          <mxGeometry x="941" y="199" width="21" height="21" as="geometry" />
        </mxCell>
        <mxCell id="YOj0RfPdQwlDos6cRO1P-37" value="" style="fillColor=none;strokeColor=#5A6C86;dashed=1;verticalAlign=top;fontStyle=0;fontColor=#5A6C86;align=center;" parent="1" vertex="1">
          <mxGeometry x="530" y="190" width="236" height="50" as="geometry" />
        </mxCell>
        <mxCell id="YOj0RfPdQwlDos6cRO1P-65" value="" style="edgeStyle=orthogonalEdgeStyle;rounded=0;orthogonalLoop=1;jettySize=auto;html=1;endArrow=none;endFill=0;fontSize=10;" parent="1" source="YOj0RfPdQwlDos6cRO1P-44" target="YOj0RfPdQwlDos6cRO1P-45" edge="1">
          <mxGeometry relative="1" as="geometry" />
        </mxCell>
        <mxCell id="YOj0RfPdQwlDos6cRO1P-44" value="Target Group Broker 1 - 9094" style="rounded=0;whiteSpace=wrap;html=1;align=center;fillColor=#fff2cc;strokeColor=none;" parent="1" vertex="1">
          <mxGeometry x="537" y="202.5" width="100" height="30" as="geometry" />
        </mxCell>
        <mxCell id="YOj0RfPdQwlDos6cRO1P-81" style="rounded=0;orthogonalLoop=1;jettySize=auto;html=1;exitX=1;exitY=0.5;exitDx=0;exitDy=0;endArrow=none;endFill=0;fontSize=10;" parent="1" source="YOj0RfPdQwlDos6cRO1P-45" target="nQkquUUah0399Bla8zBt-8" edge="1">
          <mxGeometry relative="1" as="geometry" />
        </mxCell>
        <mxCell id="YOj0RfPdQwlDos6cRO1P-45" value="Listener &lt;br&gt;Broker 1 - 9094" style="rounded=0;whiteSpace=wrap;html=1;align=center;fillColor=#fff2cc;strokeColor=none;" parent="1" vertex="1">
          <mxGeometry x="656" y="202.5" width="100" height="30" as="geometry" />
        </mxCell>
        <mxCell id="YOj0RfPdQwlDos6cRO1P-63" value="" style="edgeStyle=orthogonalEdgeStyle;rounded=0;orthogonalLoop=1;jettySize=auto;html=1;endArrow=none;endFill=0;fontSize=10;" parent="1" source="YOj0RfPdQwlDos6cRO1P-46" target="YOj0RfPdQwlDos6cRO1P-48" edge="1">
          <mxGeometry relative="1" as="geometry" />
        </mxCell>
        <mxCell id="YOj0RfPdQwlDos6cRO1P-46" value="Target Group Broker 2 - 9094" style="rounded=0;whiteSpace=wrap;html=1;align=center;fillColor=#fff2cc;strokeColor=none;" parent="1" vertex="1">
          <mxGeometry x="538.5" y="351" width="100" height="30" as="geometry" />
        </mxCell>
        <mxCell id="YOj0RfPdQwlDos6cRO1P-66" value="" style="edgeStyle=orthogonalEdgeStyle;rounded=0;orthogonalLoop=1;jettySize=auto;html=1;endArrow=none;endFill=0;fontSize=10;" parent="1" source="YOj0RfPdQwlDos6cRO1P-47" target="YOj0RfPdQwlDos6cRO1P-49" edge="1">
          <mxGeometry relative="1" as="geometry" />
        </mxCell>
        <mxCell id="YOj0RfPdQwlDos6cRO1P-47" value="Target Group Broker 3 - 9094" style="rounded=0;whiteSpace=wrap;html=1;align=center;fillColor=#fff2cc;strokeColor=none;" parent="1" vertex="1">
          <mxGeometry x="537" y="515" width="100" height="30" as="geometry" />
        </mxCell>
        <mxCell id="YOj0RfPdQwlDos6cRO1P-48" value="Listener &lt;br&gt;Broker 2 - 9094" style="rounded=0;whiteSpace=wrap;html=1;align=center;fillColor=#fff2cc;strokeColor=none;" parent="1" vertex="1">
          <mxGeometry x="657.5" y="351" width="100" height="30" as="geometry" />
        </mxCell>
        <mxCell id="YOj0RfPdQwlDos6cRO1P-49" value="Listener &lt;br&gt;Broker 3 - 9094" style="rounded=0;whiteSpace=wrap;html=1;align=center;fillColor=#fff2cc;strokeColor=none;" parent="1" vertex="1">
          <mxGeometry x="656" y="515" width="100" height="30" as="geometry" />
        </mxCell>
        <mxCell id="YOj0RfPdQwlDos6cRO1P-53" value="" style="outlineConnect=0;fontColor=#232F3E;gradientColor=#945DF2;gradientDirection=north;fillColor=#5A30B5;strokeColor=#ffffff;dashed=0;verticalLabelPosition=bottom;verticalAlign=top;align=center;html=1;fontSize=12;fontStyle=0;aspect=fixed;shape=mxgraph.aws4.resourceIcon;resIcon=mxgraph.aws4.route_53;" parent="1" vertex="1">
          <mxGeometry x="1039.66" y="92" width="36" height="36" as="geometry" />
        </mxCell>
        <mxCell id="DqZF1T1k3552ePXCRRWf-6" value="" style="outlineConnect=0;fontColor=#232F3E;gradientColor=#945DF2;gradientDirection=north;fillColor=#5A30B5;strokeColor=#ffffff;dashed=0;verticalLabelPosition=bottom;verticalAlign=top;align=left;html=1;fontSize=12;fontStyle=0;aspect=fixed;shape=mxgraph.aws4.resourceIcon;resIcon=mxgraph.aws4.managed_streaming_for_kafka;" parent="1" vertex="1">
          <mxGeometry x="49.99913043478263" y="70" width="18.260869565217394" height="18.260869565217394" as="geometry" />
        </mxCell>
        <mxCell id="DqZF1T1k3552ePXCRRWf-9" value="Amazon MSK&lt;br&gt;Broker Node 1" style="rounded=0;whiteSpace=wrap;html=1;align=center;fillColor=#ffe6cc;strokeColor=#d79b00;" parent="1" vertex="1">
          <mxGeometry x="69.99782608695652" y="187.5" width="73.04347826086958" height="60" as="geometry" />
        </mxCell>
        <mxCell id="DqZF1T1k3552ePXCRRWf-10" value="Amazon MSK&lt;br&gt;Broker Node 2" style="rounded=0;whiteSpace=wrap;html=1;align=center;fillColor=#ffe6cc;strokeColor=#d79b00;" parent="1" vertex="1">
          <mxGeometry x="69.99782608695654" y="336" width="73.04347826086958" height="60" as="geometry" />
        </mxCell>
        <mxCell id="YOj0RfPdQwlDos6cRO1P-58" value="" style="edgeStyle=orthogonalEdgeStyle;rounded=0;orthogonalLoop=1;jettySize=auto;html=1;fontSize=10;endArrow=none;endFill=0;" parent="1" source="DqZF1T1k3552ePXCRRWf-11" target="YOj0RfPdQwlDos6cRO1P-19" edge="1">
          <mxGeometry relative="1" as="geometry">
            <mxPoint x="227.391304347826" y="522.5" as="targetPoint" />
          </mxGeometry>
        </mxCell>
        <mxCell id="DqZF1T1k3552ePXCRRWf-11" value="Amazon MSK&lt;br&gt;Broker Node 3" style="rounded=0;whiteSpace=wrap;html=1;align=center;fillColor=#ffe6cc;strokeColor=#d79b00;" parent="1" vertex="1">
          <mxGeometry x="69.99782608695654" y="500" width="73.04347826086958" height="60" as="geometry" />
        </mxCell>
        <mxCell id="YOj0RfPdQwlDos6cRO1P-56" value="" style="edgeStyle=orthogonalEdgeStyle;rounded=0;orthogonalLoop=1;jettySize=auto;html=1;fontSize=10;endArrow=none;endFill=0;" parent="1" source="DqZF1T1k3552ePXCRRWf-10" target="YOj0RfPdQwlDos6cRO1P-18" edge="1">
          <mxGeometry relative="1" as="geometry" />
        </mxCell>
        <mxCell id="YOj0RfPdQwlDos6cRO1P-55" value="" style="edgeStyle=orthogonalEdgeStyle;rounded=0;orthogonalLoop=1;jettySize=auto;html=1;fontSize=10;endArrow=none;endFill=0;" parent="1" source="DqZF1T1k3552ePXCRRWf-9" target="YOj0RfPdQwlDos6cRO1P-14" edge="1">
          <mxGeometry relative="1" as="geometry" />
        </mxCell>
        <mxCell id="YOj0RfPdQwlDos6cRO1P-93" value="" style="edgeStyle=none;rounded=0;orthogonalLoop=1;jettySize=auto;html=1;endArrow=none;endFill=0;strokeColor=#4D4D4D;fontSize=10;" parent="1" source="YOj0RfPdQwlDos6cRO1P-67" target="YOj0RfPdQwlDos6cRO1P-53" edge="1">
          <mxGeometry relative="1" as="geometry">
            <mxPoint x="1059.5" y="201" as="targetPoint" />
          </mxGeometry>
        </mxCell>
        <mxCell id="YOj0RfPdQwlDos6cRO1P-67" value="" style="outlineConnect=0;fontColor=#232F3E;gradientColor=none;strokeColor=none;dashed=0;verticalLabelPosition=bottom;verticalAlign=top;align=center;html=1;fontSize=12;fontStyle=0;aspect=fixed;pointerEvents=1;shape=mxgraph.aws4.client;strokeWidth=1;fillColor=#4D4D4D;" parent="1" vertex="1">
          <mxGeometry x="1046" y="203.5" width="25.66" height="25" as="geometry" />
        </mxCell>
        <mxCell id="YOj0RfPdQwlDos6cRO1P-69" value="&lt;font style=&quot;font-size: 10px&quot;&gt;ENI&lt;br style=&quot;font-size: 10px&quot;&gt;&lt;/font&gt;" style="text;html=1;strokeColor=none;fillColor=none;align=center;verticalAlign=middle;whiteSpace=wrap;rounded=0;fontSize=10;" parent="1" vertex="1">
          <mxGeometry x="959" y="192" width="29" height="20" as="geometry" />
        </mxCell>
        <mxCell id="YOj0RfPdQwlDos6cRO1P-73" value="tcp/9094" style="edgeLabel;html=1;align=center;verticalAlign=middle;resizable=0;points=[];fontSize=10;labelBackgroundColor=none;" parent="1" vertex="1" connectable="0">
          <mxGeometry x="430" y="217.5" as="geometry">
            <mxPoint x="-18" y="141" as="offset" />
          </mxGeometry>
        </mxCell>
        <mxCell id="YOj0RfPdQwlDos6cRO1P-74" value="tcp/9094" style="edgeLabel;html=1;align=center;verticalAlign=middle;resizable=0;points=[];fontSize=10;labelBackgroundColor=none;" parent="1" vertex="1" connectable="0">
          <mxGeometry x="430" y="386" as="geometry">
            <mxPoint x="-15" y="135" as="offset" />
          </mxGeometry>
        </mxCell>
        <mxCell id="YOj0RfPdQwlDos6cRO1P-82" style="rounded=0;orthogonalLoop=1;jettySize=auto;html=1;exitX=1;exitY=0.5;exitDx=0;exitDy=0;endArrow=none;endFill=0;fontSize=10;" parent="1" source="YOj0RfPdQwlDos6cRO1P-49" target="nQkquUUah0399Bla8zBt-9" edge="1">
          <mxGeometry relative="1" as="geometry">
            <mxPoint x="766" y="227.5" as="sourcePoint" />
            <mxPoint x="810.3163841807909" y="375.5" as="targetPoint" />
          </mxGeometry>
        </mxCell>
        <mxCell id="YOj0RfPdQwlDos6cRO1P-83" style="rounded=0;orthogonalLoop=1;jettySize=auto;html=1;endArrow=none;endFill=0;fontSize=10;exitX=1;exitY=0.5;exitDx=0;exitDy=0;" parent="1" source="YOj0RfPdQwlDos6cRO1P-48" edge="1">
          <mxGeometry relative="1" as="geometry">
            <mxPoint x="766" y="227.5" as="sourcePoint" />
            <mxPoint x="780" y="366" as="targetPoint" />
            <Array as="points">
              <mxPoint x="780" y="366" />
            </Array>
          </mxGeometry>
        </mxCell>
        <mxCell id="YOj0RfPdQwlDos6cRO1P-94" value="2" style="ellipse;whiteSpace=wrap;html=1;aspect=fixed;strokeWidth=2;fontFamily=Tahoma;spacingBottom=4;spacingRight=2;strokeColor=#d3d3d3;labelBackgroundColor=none;fillColor=#4D4D4D;align=left;fontColor=#FFFFFF;spacingLeft=4;" parent="1" vertex="1">
          <mxGeometry x="1030.5" y="161" width="20" height="20" as="geometry" />
        </mxCell>
        <mxCell id="YOj0RfPdQwlDos6cRO1P-95" value="3" style="ellipse;whiteSpace=wrap;html=1;aspect=fixed;strokeWidth=2;fontFamily=Tahoma;spacingBottom=4;spacingRight=2;strokeColor=#d3d3d3;labelBackgroundColor=none;fillColor=#4D4D4D;align=left;fontColor=#FFFFFF;spacingLeft=4;" parent="1" vertex="1">
          <mxGeometry x="985" y="220.5" width="20" height="20" as="geometry" />
        </mxCell>
        <mxCell id="YOj0RfPdQwlDos6cRO1P-96" value="4" style="ellipse;whiteSpace=wrap;html=1;aspect=fixed;strokeWidth=2;fontFamily=Tahoma;spacingBottom=4;spacingRight=2;strokeColor=#d3d3d3;labelBackgroundColor=none;fillColor=#4D4D4D;align=left;fontColor=#FFFFFF;spacingLeft=4;" parent="1" vertex="1">
          <mxGeometry x="817" y="236" width="20" height="20" as="geometry" />
        </mxCell>
        <mxCell id="YOj0RfPdQwlDos6cRO1P-97" value="5" style="ellipse;whiteSpace=wrap;html=1;aspect=fixed;strokeWidth=2;fontFamily=Tahoma;spacingBottom=4;spacingRight=2;strokeColor=#d3d3d3;labelBackgroundColor=none;fillColor=#4D4D4D;align=left;fontColor=#FFFFFF;spacingLeft=4;" parent="1" vertex="1">
          <mxGeometry x="759" y="232.5" width="20" height="20" as="geometry" />
        </mxCell>
        <mxCell id="J3hpJYSXND3omHvZxPC7-1" value="&lt;font style=&quot;font-size: 10px&quot;&gt;Bootstrap Brokers&lt;br style=&quot;font-size: 10px&quot;&gt;&lt;/font&gt;" style="text;html=1;strokeColor=#b85450;fillColor=#f8cecc;align=center;verticalAlign=middle;whiteSpace=wrap;rounded=0;fontSize=10;" parent="1" vertex="1">
          <mxGeometry x="1075.66" y="195" width="45" height="25" as="geometry" />
        </mxCell>
        <mxCell id="J3hpJYSXND3omHvZxPC7-3" value="&lt;font style=&quot;font-size: 10px&quot;&gt;Private hosted Zone&lt;br style=&quot;font-size: 10px&quot;&gt;&lt;/font&gt;" style="text;html=1;strokeColor=#b85450;fillColor=#f8cecc;align=center;verticalAlign=middle;whiteSpace=wrap;rounded=0;fontSize=10;" parent="1" vertex="1">
          <mxGeometry x="969.5" y="97.5" width="61" height="25" as="geometry" />
        </mxCell>
        <mxCell id="J3hpJYSXND3omHvZxPC7-4" value="" style="endArrow=classic;html=1;strokeColor=#FFB570;entryX=0.287;entryY=1.056;entryDx=0;entryDy=0;entryPerimeter=0;strokeWidth=2;jumpSize=6;exitX=0.154;exitY=-0.02;exitDx=0;exitDy=0;exitPerimeter=0;" parent="1" edge="1" target="YOj0RfPdQwlDos6cRO1P-53" source="YOj0RfPdQwlDos6cRO1P-67">
          <mxGeometry width="50" height="50" relative="1" as="geometry">
            <mxPoint x="1037.995516895563" y="263.986" as="sourcePoint" />
            <mxPoint x="1038" y="147.01599999999996" as="targetPoint" />
          </mxGeometry>
        </mxCell>
        <mxCell id="J3hpJYSXND3omHvZxPC7-6" value="" style="endArrow=classic;html=1;strokeColor=#FFB570;strokeWidth=2;jumpSize=6;" parent="1" target="nQkquUUah0399Bla8zBt-10" edge="1">
          <mxGeometry width="50" height="50" relative="1" as="geometry">
            <mxPoint x="1046" y="220" as="sourcePoint" />
            <mxPoint x="1048" y="161.01599999999996" as="targetPoint" />
          </mxGeometry>
        </mxCell>
        <mxCell id="J3hpJYSXND3omHvZxPC7-8" value="" style="endArrow=classic;html=1;strokeColor=#FFB570;strokeWidth=2;jumpSize=6;entryX=1;entryY=0.784;entryDx=0;entryDy=0;entryPerimeter=0;" parent="1" edge="1">
          <mxGeometry width="50" height="50" relative="1" as="geometry">
            <mxPoint x="851" y="226" as="sourcePoint" />
            <mxPoint x="817" y="226.00800000000004" as="targetPoint" />
          </mxGeometry>
        </mxCell>
        <mxCell id="J3hpJYSXND3omHvZxPC7-11" value="5a" style="ellipse;whiteSpace=wrap;html=1;aspect=fixed;strokeWidth=2;fontFamily=Tahoma;spacingBottom=4;spacingRight=0;strokeColor=#d3d3d3;labelBackgroundColor=none;fillColor=#4D4D4D;align=left;fontColor=#FFFFFF;spacingLeft=2;" parent="1" vertex="1">
          <mxGeometry x="638" y="230" width="20" height="20" as="geometry" />
        </mxCell>
        <mxCell id="J3hpJYSXND3omHvZxPC7-20" value="8" style="ellipse;whiteSpace=wrap;html=1;aspect=fixed;strokeWidth=2;fontFamily=Tahoma;spacingBottom=4;spacingRight=2;strokeColor=#d3d3d3;labelBackgroundColor=none;fillColor=#4D4D4D;align=left;fontColor=#FFFFFF;spacingLeft=4;" parent="1" vertex="1">
          <mxGeometry x="1065" y="150" width="20" height="20" as="geometry" />
        </mxCell>
        <mxCell id="J3hpJYSXND3omHvZxPC7-21" value="9" style="ellipse;whiteSpace=wrap;html=1;aspect=fixed;strokeWidth=2;fontFamily=Tahoma;spacingBottom=4;spacingRight=2;strokeColor=#d3d3d3;labelBackgroundColor=none;fillColor=#4D4D4D;align=left;fontColor=#FFFFFF;spacingLeft=4;" parent="1" vertex="1">
          <mxGeometry x="1030.5" y="250" width="20" height="20" as="geometry" />
        </mxCell>
        <mxCell id="J3hpJYSXND3omHvZxPC7-22" value="10" style="ellipse;whiteSpace=wrap;html=1;aspect=fixed;strokeWidth=2;fontFamily=Tahoma;spacingBottom=4;spacingRight=2;strokeColor=#d3d3d3;labelBackgroundColor=none;fillColor=#4D4D4D;align=left;fontColor=#FFFFFF;spacingLeft=2;" parent="1" vertex="1">
          <mxGeometry x="810" y="392.5" width="20" height="20" as="geometry" />
        </mxCell>
        <mxCell id="J3hpJYSXND3omHvZxPC7-23" value="" style="rounded=0;jumpSize=6;orthogonalLoop=1;jettySize=auto;html=1;strokeColor=#FFB570;strokeWidth=2;entryX=1;entryY=0.75;entryDx=0;entryDy=0;exitX=0.054;exitY=0.757;exitDx=0;exitDy=0;exitPerimeter=0;" parent="1" source="nQkquUUah0399Bla8zBt-8" target="YOj0RfPdQwlDos6cRO1P-45" edge="1">
          <mxGeometry relative="1" as="geometry">
            <mxPoint x="796.6663162952732" y="391" as="sourcePoint" />
            <mxPoint x="760" y="321.01" as="targetPoint" />
          </mxGeometry>
        </mxCell>
        <mxCell id="J3hpJYSXND3omHvZxPC7-24" value="11" style="ellipse;whiteSpace=wrap;html=1;aspect=fixed;strokeWidth=2;fontFamily=Tahoma;spacingBottom=4;spacingRight=2;strokeColor=#d3d3d3;labelBackgroundColor=none;fillColor=#4D4D4D;align=left;fontColor=#FFFFFF;spacingLeft=2;" parent="1" vertex="1">
          <mxGeometry x="766" y="390" width="20" height="20" as="geometry" />
        </mxCell>
        <mxCell id="J3hpJYSXND3omHvZxPC7-25" value="" style="rounded=0;jumpSize=6;orthogonalLoop=1;jettySize=auto;html=1;strokeColor=#FFB570;strokeWidth=2;entryX=1;entryY=0.75;entryDx=0;entryDy=0;exitX=0.025;exitY=0.75;exitDx=0;exitDy=0;exitPerimeter=0;" parent="1" edge="1">
          <mxGeometry relative="1" as="geometry">
            <mxPoint x="660" y="224.5" as="sourcePoint" />
            <mxPoint x="638.5" y="224.5" as="targetPoint" />
          </mxGeometry>
        </mxCell>
        <mxCell id="J3hpJYSXND3omHvZxPC7-26" value="11a" style="ellipse;whiteSpace=wrap;html=1;aspect=fixed;strokeWidth=2;fontFamily=Tahoma;spacingBottom=4;spacingRight=2;strokeColor=#d3d3d3;labelBackgroundColor=none;fillColor=#4D4D4D;align=left;fontColor=#FFFFFF;spacingLeft=0;fontSize=10;" parent="1" vertex="1">
          <mxGeometry x="640.5" y="386" width="20" height="20" as="geometry" />
        </mxCell>
        <mxCell id="J3hpJYSXND3omHvZxPC7-27" value="" style="endArrow=classic;html=1;strokeColor=#FFB570;strokeWidth=2;jumpSize=6;exitX=0;exitY=0.75;exitDx=0;exitDy=0;entryX=1;entryY=0;entryDx=0;entryDy=0;" parent="1" source="YOj0RfPdQwlDos6cRO1P-44" edge="1" target="YOj0RfPdQwlDos6cRO1P-23">
          <mxGeometry width="50" height="50" relative="1" as="geometry">
            <mxPoint x="572" y="295" as="sourcePoint" />
            <mxPoint x="457" y="383" as="targetPoint" />
          </mxGeometry>
        </mxCell>
        <mxCell id="nQkquUUah0399Bla8zBt-1" value="&lt;font style=&quot;font-size: 10px&quot;&gt;NLB1&lt;br style=&quot;font-size: 10px&quot;&gt;&lt;/font&gt;" style="text;html=1;strokeColor=none;fillColor=none;align=center;verticalAlign=middle;whiteSpace=wrap;rounded=0;fontSize=10;" parent="1" vertex="1">
          <mxGeometry x="660.5" y="165" width="45" height="20" as="geometry" />
        </mxCell>
        <mxCell id="nQkquUUah0399Bla8zBt-2" value="" style="outlineConnect=0;fontColor=#232F3E;gradientColor=none;fillColor=#5A30B5;strokeColor=none;dashed=0;verticalLabelPosition=bottom;verticalAlign=top;align=center;html=1;fontSize=12;fontStyle=0;aspect=fixed;pointerEvents=1;shape=mxgraph.aws4.network_load_balancer;" parent="1" vertex="1">
          <mxGeometry x="628" y="305" width="40" height="40" as="geometry" />
        </mxCell>
        <mxCell id="nQkquUUah0399Bla8zBt-4" value="&lt;font style=&quot;font-size: 10px&quot;&gt;NLB2&lt;br style=&quot;font-size: 10px&quot;&gt;&lt;/font&gt;" style="text;html=1;strokeColor=none;fillColor=none;align=center;verticalAlign=middle;whiteSpace=wrap;rounded=0;fontSize=10;" parent="1" vertex="1">
          <mxGeometry x="660.5" y="315" width="45" height="20" as="geometry" />
        </mxCell>
        <mxCell id="nQkquUUah0399Bla8zBt-6" value="" style="outlineConnect=0;fontColor=#232F3E;gradientColor=none;fillColor=#5A30B5;strokeColor=none;dashed=0;verticalLabelPosition=bottom;verticalAlign=top;align=center;html=1;fontSize=12;fontStyle=0;aspect=fixed;pointerEvents=1;shape=mxgraph.aws4.network_load_balancer;" parent="1" vertex="1">
          <mxGeometry x="628" y="470" width="40" height="40" as="geometry" />
        </mxCell>
        <mxCell id="nQkquUUah0399Bla8zBt-7" value="&lt;font style=&quot;font-size: 10px&quot;&gt;NLB3&lt;br style=&quot;font-size: 10px&quot;&gt;&lt;/font&gt;" style="text;html=1;strokeColor=none;fillColor=none;align=center;verticalAlign=middle;whiteSpace=wrap;rounded=0;fontSize=10;" parent="1" vertex="1">
          <mxGeometry x="660.5" y="480" width="45" height="20" as="geometry" />
        </mxCell>
        <mxCell id="nQkquUUah0399Bla8zBt-13" value="" style="edgeStyle=none;rounded=0;orthogonalLoop=1;jettySize=auto;html=1;endArrow=none;endFill=0;" parent="1" source="nQkquUUah0399Bla8zBt-8" target="nQkquUUah0399Bla8zBt-10" edge="1">
          <mxGeometry relative="1" as="geometry" />
        </mxCell>
        <mxCell id="nQkquUUah0399Bla8zBt-8" value="VPC Endpoint&lt;br style=&quot;font-size: 10px&quot;&gt;Service 1" style="outlineConnect=0;fontColor=#232F3E;gradientColor=#945DF2;gradientDirection=north;fillColor=#5A30B5;strokeColor=#ffffff;dashed=0;verticalLabelPosition=top;verticalAlign=bottom;align=center;html=1;fontSize=10;fontStyle=0;aspect=fixed;shape=mxgraph.aws4.resourceIcon;resIcon=mxgraph.aws4.vpc_privatelink;horizontal=1;labelPosition=center;" parent="1" vertex="1">
          <mxGeometry x="780" y="199" width="37" height="37" as="geometry" />
        </mxCell>
        <mxCell id="k4Ie8rZXymBCQABj3Up5-147" style="edgeStyle=none;rounded=0;orthogonalLoop=1;jettySize=auto;html=1;endArrow=none;endFill=0;fontSize=10;" edge="1" parent="1" source="nQkquUUah0399Bla8zBt-9" target="DqZF1T1k3552ePXCRRWf-12">
          <mxGeometry relative="1" as="geometry" />
        </mxCell>
        <mxCell id="nQkquUUah0399Bla8zBt-9" value="VPC&amp;nbsp; Endpoint&lt;br style=&quot;font-size: 10px&quot;&gt;Service 3" style="outlineConnect=0;fontColor=#232F3E;gradientColor=#945DF2;gradientDirection=north;fillColor=#5A30B5;strokeColor=#ffffff;dashed=0;verticalLabelPosition=top;verticalAlign=bottom;align=center;html=1;fontSize=10;fontStyle=0;aspect=fixed;shape=mxgraph.aws4.resourceIcon;resIcon=mxgraph.aws4.vpc_privatelink;horizontal=1;labelPosition=center;" parent="1" vertex="1">
          <mxGeometry x="780" y="511.5" width="37" height="37" as="geometry" />
        </mxCell>
        <mxCell id="nQkquUUah0399Bla8zBt-10" value="VPC Endpoint 1&lt;br style=&quot;font-size: 10px&quot;&gt;&lt;p style=&quot;margin-top: 0pt ; margin-bottom: 0pt ; margin-left: 0in ; text-align: left ; direction: ltr ; unicode-bidi: embed ; word-break: normal ; font-size: 10px&quot;&gt;&lt;/p&gt;" style="outlineConnect=0;gradientColor=none;fillColor=#5A30B5;strokeColor=none;dashed=0;verticalLabelPosition=middle;verticalAlign=middle;align=right;html=1;fontSize=10;fontStyle=0;aspect=fixed;pointerEvents=1;shape=mxgraph.aws4.endpoints;spacingBottom=-27;horizontal=0;labelPosition=left;" parent="1" vertex="1">
          <mxGeometry x="851.5" y="196.5" width="44" height="44" as="geometry" />
        </mxCell>
        <mxCell id="k4Ie8rZXymBCQABj3Up5-146" value="" style="edgeStyle=none;rounded=0;orthogonalLoop=1;jettySize=auto;html=1;endArrow=none;endFill=0;fontSize=10;" edge="1" parent="1" source="nQkquUUah0399Bla8zBt-11" target="nQkquUUah0399Bla8zBt-9">
          <mxGeometry relative="1" as="geometry" />
        </mxCell>
        <mxCell id="nQkquUUah0399Bla8zBt-11" value="VPC Endpoint 3&lt;br style=&quot;font-size: 10px&quot;&gt;&lt;p style=&quot;margin-top: 0pt ; margin-bottom: 0pt ; margin-left: 0in ; text-align: left ; direction: ltr ; unicode-bidi: embed ; word-break: normal ; font-size: 10px&quot;&gt;&lt;/p&gt;" style="outlineConnect=0;gradientColor=none;fillColor=#5A30B5;strokeColor=none;dashed=0;verticalLabelPosition=middle;verticalAlign=middle;align=right;html=1;fontSize=10;fontStyle=0;aspect=fixed;pointerEvents=1;shape=mxgraph.aws4.endpoints;spacingBottom=-27;horizontal=0;labelPosition=left;" parent="1" vertex="1">
          <mxGeometry x="850" y="509" width="44" height="44" as="geometry" />
        </mxCell>
        <mxCell id="nQkquUUah0399Bla8zBt-41" value="" style="edgeStyle=none;rounded=0;orthogonalLoop=1;jettySize=auto;html=1;endArrow=none;endFill=0;" parent="1" source="nQkquUUah0399Bla8zBt-16" target="YOj0RfPdQwlDos6cRO1P-29" edge="1">
          <mxGeometry relative="1" as="geometry" />
        </mxCell>
        <mxCell id="nQkquUUah0399Bla8zBt-16" value="" style="outlineConnect=0;fontColor=#232F3E;gradientColor=none;fillColor=#5A30B5;strokeColor=none;dashed=0;verticalLabelPosition=bottom;verticalAlign=top;align=center;html=1;fontSize=12;fontStyle=0;aspect=fixed;pointerEvents=1;shape=mxgraph.aws4.elastic_network_interface;" parent="1" vertex="1">
          <mxGeometry x="941.25" y="225" width="20.5" height="20.5" as="geometry" />
        </mxCell>
        <mxCell id="nQkquUUah0399Bla8zBt-42" value="" style="edgeStyle=none;rounded=0;orthogonalLoop=1;jettySize=auto;html=1;endArrow=none;endFill=0;" parent="1" source="nQkquUUah0399Bla8zBt-18" target="nQkquUUah0399Bla8zBt-11" edge="1">
          <mxGeometry relative="1" as="geometry" />
        </mxCell>
        <mxCell id="nQkquUUah0399Bla8zBt-18" value="" style="outlineConnect=0;fontColor=#232F3E;gradientColor=none;fillColor=#5A30B5;strokeColor=none;dashed=0;verticalLabelPosition=bottom;verticalAlign=top;align=center;html=1;fontSize=12;fontStyle=0;aspect=fixed;pointerEvents=1;shape=mxgraph.aws4.elastic_network_interface;" parent="1" vertex="1">
          <mxGeometry x="941.25" y="249.5" width="20.5" height="20.5" as="geometry" />
        </mxCell>
        <mxCell id="nQkquUUah0399Bla8zBt-20" value="&lt;font style=&quot;font-size: 10px&quot;&gt;ENI&lt;br style=&quot;font-size: 10px&quot;&gt;&lt;/font&gt;" style="text;html=1;strokeColor=none;fillColor=none;align=center;verticalAlign=middle;whiteSpace=wrap;rounded=0;fontSize=10;" parent="1" vertex="1">
          <mxGeometry x="959" y="250" width="29" height="20" as="geometry" />
        </mxCell>
        <mxCell id="nQkquUUah0399Bla8zBt-21" value="&lt;font style=&quot;font-size: 10px&quot;&gt;ENI&lt;br style=&quot;font-size: 10px&quot;&gt;&lt;/font&gt;" style="text;html=1;strokeColor=none;fillColor=none;align=center;verticalAlign=middle;whiteSpace=wrap;rounded=0;fontSize=10;" parent="1" vertex="1">
          <mxGeometry x="959" y="222" width="29" height="20" as="geometry" />
        </mxCell>
        <mxCell id="nQkquUUah0399Bla8zBt-45" value="" style="edgeStyle=none;rounded=0;orthogonalLoop=1;jettySize=auto;html=1;endArrow=none;endFill=0;" parent="1" source="nQkquUUah0399Bla8zBt-29" target="nQkquUUah0399Bla8zBt-10" edge="1">
          <mxGeometry relative="1" as="geometry" />
        </mxCell>
        <mxCell id="nQkquUUah0399Bla8zBt-29" value="" style="outlineConnect=0;fontColor=#232F3E;gradientColor=none;fillColor=#5A30B5;strokeColor=none;dashed=0;verticalLabelPosition=bottom;verticalAlign=top;align=center;html=1;fontSize=12;fontStyle=0;aspect=fixed;pointerEvents=1;shape=mxgraph.aws4.elastic_network_interface;" parent="1" vertex="1">
          <mxGeometry x="941" y="357" width="21" height="21" as="geometry" />
        </mxCell>
        <mxCell id="nQkquUUah0399Bla8zBt-30" value="&lt;font style=&quot;font-size: 10px&quot;&gt;ENI&lt;br style=&quot;font-size: 10px&quot;&gt;&lt;/font&gt;" style="text;html=1;strokeColor=none;fillColor=none;align=center;verticalAlign=middle;whiteSpace=wrap;rounded=0;fontSize=10;" parent="1" vertex="1">
          <mxGeometry x="959" y="350" width="29" height="20" as="geometry" />
        </mxCell>
        <mxCell id="nQkquUUah0399Bla8zBt-43" value="" style="edgeStyle=none;rounded=0;orthogonalLoop=1;jettySize=auto;html=1;endArrow=none;endFill=0;" parent="1" source="nQkquUUah0399Bla8zBt-31" target="YOj0RfPdQwlDos6cRO1P-29" edge="1">
          <mxGeometry relative="1" as="geometry" />
        </mxCell>
        <mxCell id="nQkquUUah0399Bla8zBt-31" value="" style="outlineConnect=0;fontColor=#232F3E;gradientColor=none;fillColor=#5A30B5;strokeColor=none;dashed=0;verticalLabelPosition=bottom;verticalAlign=top;align=center;html=1;fontSize=12;fontStyle=0;aspect=fixed;pointerEvents=1;shape=mxgraph.aws4.elastic_network_interface;" parent="1" vertex="1">
          <mxGeometry x="941.25" y="383" width="20.5" height="20.5" as="geometry" />
        </mxCell>
        <mxCell id="nQkquUUah0399Bla8zBt-44" value="" style="edgeStyle=none;rounded=0;orthogonalLoop=1;jettySize=auto;html=1;endArrow=none;endFill=0;" parent="1" source="nQkquUUah0399Bla8zBt-32" edge="1">
          <mxGeometry relative="1" as="geometry">
            <mxPoint x="880" y="500" as="targetPoint" />
          </mxGeometry>
        </mxCell>
        <mxCell id="nQkquUUah0399Bla8zBt-32" value="" style="outlineConnect=0;fontColor=#232F3E;gradientColor=none;fillColor=#5A30B5;strokeColor=none;dashed=0;verticalLabelPosition=bottom;verticalAlign=top;align=center;html=1;fontSize=12;fontStyle=0;aspect=fixed;pointerEvents=1;shape=mxgraph.aws4.elastic_network_interface;" parent="1" vertex="1">
          <mxGeometry x="941.25" y="407.5" width="20.5" height="20.5" as="geometry" />
        </mxCell>
        <mxCell id="nQkquUUah0399Bla8zBt-33" value="&lt;font style=&quot;font-size: 10px&quot;&gt;ENI&lt;br style=&quot;font-size: 10px&quot;&gt;&lt;/font&gt;" style="text;html=1;strokeColor=none;fillColor=none;align=center;verticalAlign=middle;whiteSpace=wrap;rounded=0;fontSize=10;" parent="1" vertex="1">
          <mxGeometry x="959" y="408" width="29" height="20" as="geometry" />
        </mxCell>
        <mxCell id="nQkquUUah0399Bla8zBt-34" value="&lt;font style=&quot;font-size: 10px&quot;&gt;ENI&lt;br style=&quot;font-size: 10px&quot;&gt;&lt;/font&gt;" style="text;html=1;strokeColor=none;fillColor=none;align=center;verticalAlign=middle;whiteSpace=wrap;rounded=0;fontSize=10;" parent="1" vertex="1">
          <mxGeometry x="959" y="380" width="29" height="20" as="geometry" />
        </mxCell>
        <mxCell id="nQkquUUah0399Bla8zBt-35" value="" style="outlineConnect=0;fontColor=#232F3E;gradientColor=none;fillColor=#5A30B5;strokeColor=none;dashed=0;verticalLabelPosition=bottom;verticalAlign=top;align=center;html=1;fontSize=12;fontStyle=0;aspect=fixed;pointerEvents=1;shape=mxgraph.aws4.elastic_network_interface;" parent="1" vertex="1">
          <mxGeometry x="941" y="497.5" width="21" height="21" as="geometry" />
        </mxCell>
        <mxCell id="nQkquUUah0399Bla8zBt-46" value="" style="edgeStyle=none;rounded=0;orthogonalLoop=1;jettySize=auto;html=1;endArrow=none;endFill=0;entryX=0.648;entryY=0.989;entryDx=0;entryDy=0;entryPerimeter=0;" parent="1" source="nQkquUUah0399Bla8zBt-35" target="nQkquUUah0399Bla8zBt-10" edge="1">
          <mxGeometry relative="1" as="geometry" />
        </mxCell>
        <mxCell id="nQkquUUah0399Bla8zBt-36" value="&lt;font style=&quot;font-size: 10px&quot;&gt;ENI&lt;br style=&quot;font-size: 10px&quot;&gt;&lt;/font&gt;" style="text;html=1;strokeColor=none;fillColor=none;align=center;verticalAlign=middle;whiteSpace=wrap;rounded=0;fontSize=10;" parent="1" vertex="1">
          <mxGeometry x="959" y="490.5" width="29" height="20" as="geometry" />
        </mxCell>
        <mxCell id="nQkquUUah0399Bla8zBt-47" value="" style="edgeStyle=none;rounded=0;orthogonalLoop=1;jettySize=auto;html=1;endArrow=none;endFill=0;" parent="1" source="nQkquUUah0399Bla8zBt-37" target="YOj0RfPdQwlDos6cRO1P-29" edge="1">
          <mxGeometry relative="1" as="geometry" />
        </mxCell>
        <mxCell id="nQkquUUah0399Bla8zBt-37" value="" style="outlineConnect=0;fontColor=#232F3E;gradientColor=none;fillColor=#5A30B5;strokeColor=none;dashed=0;verticalLabelPosition=bottom;verticalAlign=top;align=center;html=1;fontSize=12;fontStyle=0;aspect=fixed;pointerEvents=1;shape=mxgraph.aws4.elastic_network_interface;" parent="1" vertex="1">
          <mxGeometry x="941.25" y="523.5" width="20.5" height="20.5" as="geometry" />
        </mxCell>
        <mxCell id="nQkquUUah0399Bla8zBt-48" value="" style="edgeStyle=none;rounded=0;orthogonalLoop=1;jettySize=auto;html=1;endArrow=none;endFill=0;" parent="1" source="nQkquUUah0399Bla8zBt-38" target="nQkquUUah0399Bla8zBt-11" edge="1">
          <mxGeometry relative="1" as="geometry" />
        </mxCell>
        <mxCell id="nQkquUUah0399Bla8zBt-38" value="" style="outlineConnect=0;fontColor=#232F3E;gradientColor=none;fillColor=#5A30B5;strokeColor=none;dashed=0;verticalLabelPosition=bottom;verticalAlign=top;align=center;html=1;fontSize=12;fontStyle=0;aspect=fixed;pointerEvents=1;shape=mxgraph.aws4.elastic_network_interface;" parent="1" vertex="1">
          <mxGeometry x="941.25" y="548" width="20.5" height="20.5" as="geometry" />
        </mxCell>
        <mxCell id="nQkquUUah0399Bla8zBt-39" value="&lt;font style=&quot;font-size: 10px&quot;&gt;ENI&lt;br style=&quot;font-size: 10px&quot;&gt;&lt;/font&gt;" style="text;html=1;strokeColor=none;fillColor=none;align=center;verticalAlign=middle;whiteSpace=wrap;rounded=0;fontSize=10;" parent="1" vertex="1">
          <mxGeometry x="959" y="548.5" width="29" height="20" as="geometry" />
        </mxCell>
        <mxCell id="nQkquUUah0399Bla8zBt-40" value="&lt;font style=&quot;font-size: 10px&quot;&gt;ENI&lt;br style=&quot;font-size: 10px&quot;&gt;&lt;/font&gt;" style="text;html=1;strokeColor=none;fillColor=none;align=center;verticalAlign=middle;whiteSpace=wrap;rounded=0;fontSize=10;" parent="1" vertex="1">
          <mxGeometry x="959" y="520.5" width="29" height="20" as="geometry" />
        </mxCell>
        <mxCell id="k4Ie8rZXymBCQABj3Up5-1" value="AWS Cloud" style="points=[[0,0],[0.25,0],[0.5,0],[0.75,0],[1,0],[1,0.25],[1,0.5],[1,0.75],[1,1],[0.75,1],[0.5,1],[0.25,1],[0,1],[0,0.75],[0,0.5],[0,0.25]];outlineConnect=0;html=1;whiteSpace=wrap;fontSize=12;fontStyle=0;shape=mxgraph.aws4.group;grIcon=mxgraph.aws4.group_aws_cloud_alt;verticalAlign=top;align=left;spacingLeft=30;dashed=0;" vertex="1" parent="1">
          <mxGeometry x="10" y="640" width="1150" height="580" as="geometry" />
        </mxCell>
        <mxCell id="k4Ie8rZXymBCQABj3Up5-2" value="Customer Account A" style="strokeColor=#9673a6;dashed=1;verticalAlign=top;fontStyle=0;align=center;fillColor=#E6E6E6;" vertex="1" parent="1">
          <mxGeometry x="170" y="670" width="630" height="530" as="geometry" />
        </mxCell>
        <mxCell id="k4Ie8rZXymBCQABj3Up5-3" value="" style="fillColor=none;strokeColor=#5A6C86;dashed=1;verticalAlign=top;fontStyle=0;fontColor=#5A6C86;align=center;" vertex="1" parent="1">
          <mxGeometry x="530" y="1107.5" width="236" height="50" as="geometry" />
        </mxCell>
        <mxCell id="k4Ie8rZXymBCQABj3Up5-4" value="" style="fillColor=none;strokeColor=#5A6C86;dashed=1;verticalAlign=top;fontStyle=0;fontColor=#5A6C86;align=center;" vertex="1" parent="1">
          <mxGeometry x="530" y="942.5" width="236" height="50" as="geometry" />
        </mxCell>
        <mxCell id="k4Ie8rZXymBCQABj3Up5-5" value="Amazon MSK" style="group;spacingRight=0;spacingLeft=20;align=left;fillColor=#b1ddf0;strokeColor=#10739e;container=0;spacing=0;" vertex="1" connectable="0" parent="1">
          <mxGeometry x="50" y="670" width="110" height="530" as="geometry" />
        </mxCell>
        <mxCell id="k4Ie8rZXymBCQABj3Up5-6" value="Customer Account B" style="fillColor=#e1d5e7;strokeColor=#9673a6;dashed=1;verticalAlign=top;fontStyle=0;align=center;" vertex="1" parent="1">
          <mxGeometry x="860" y="670" width="280" height="530" as="geometry" />
        </mxCell>
        <mxCell id="k4Ie8rZXymBCQABj3Up5-7" value="MSK VPC" style="points=[[0,0],[0.25,0],[0.5,0],[0.75,0],[1,0],[1,0.25],[1,0.5],[1,0.75],[1,1],[0.75,1],[0.5,1],[0.25,1],[0,1],[0,0.75],[0,0.5],[0,0.25]];outlineConnect=0;gradientColor=none;html=1;whiteSpace=wrap;fontSize=12;fontStyle=0;shape=mxgraph.aws4.group;grIcon=mxgraph.aws4.group_vpc;strokeColor=#248814;fillColor=none;verticalAlign=top;align=left;spacingLeft=30;fontColor=#AAB7B8;dashed=0;" vertex="1" parent="1">
          <mxGeometry x="200" y="700" width="320" height="490" as="geometry" />
        </mxCell>
        <mxCell id="k4Ie8rZXymBCQABj3Up5-8" value="AZ1" style="fillColor=none;strokeColor=#147EBA;dashed=1;verticalAlign=top;fontStyle=0;fontColor=#147EBA;align=right;horizontal=0;spacing=0;spacingRight=4;" vertex="1" parent="1">
          <mxGeometry x="180" y="740" width="330" height="130" as="geometry" />
        </mxCell>
        <mxCell id="k4Ie8rZXymBCQABj3Up5-9" value="AZ2" style="fillColor=none;strokeColor=#147EBA;dashed=1;verticalAlign=top;fontStyle=0;fontColor=#147EBA;align=right;horizontal=0;spacing=0;spacingRight=4;" vertex="1" parent="1">
          <mxGeometry x="180" y="890.5" width="330" height="130" as="geometry" />
        </mxCell>
        <mxCell id="k4Ie8rZXymBCQABj3Up5-10" value="AZ3" style="fillColor=none;strokeColor=#147EBA;dashed=1;verticalAlign=top;fontStyle=0;fontColor=#147EBA;align=right;horizontal=0;spacing=0;spacingRight=4;" vertex="1" parent="1">
          <mxGeometry x="180" y="1052.5" width="330" height="130" as="geometry" />
        </mxCell>
        <mxCell id="k4Ie8rZXymBCQABj3Up5-11" value="Clients VPC - 10.0.0.0/16" style="points=[[0,0],[0.25,0],[0.5,0],[0.75,0],[1,0],[1,0.25],[1,0.5],[1,0.75],[1,1],[0.75,1],[0.5,1],[0.25,1],[0,1],[0,0.75],[0,0.5],[0,0.25]];outlineConnect=0;gradientColor=none;html=1;whiteSpace=wrap;fontSize=12;fontStyle=0;shape=mxgraph.aws4.group;grIcon=mxgraph.aws4.group_vpc;strokeColor=#248814;fillColor=none;verticalAlign=top;align=left;spacingLeft=30;fontColor=#AAB7B8;dashed=0;" vertex="1" parent="1">
          <mxGeometry x="875" y="736" width="240" height="454" as="geometry" />
        </mxCell>
        <mxCell id="k4Ie8rZXymBCQABj3Up5-12" value="AZ1" style="fillColor=none;strokeColor=#147EBA;dashed=1;verticalAlign=top;fontStyle=0;fontColor=#147EBA;align=right;horizontal=0;spacing=0;spacingRight=4;" vertex="1" parent="1">
          <mxGeometry x="902.5" y="761" width="220" height="129" as="geometry" />
        </mxCell>
        <mxCell id="k4Ie8rZXymBCQABj3Up5-13" value="AZ2" style="fillColor=none;strokeColor=#147EBA;dashed=1;verticalAlign=top;fontStyle=0;fontColor=#147EBA;align=right;horizontal=0;spacing=0;spacingRight=4;" vertex="1" parent="1">
          <mxGeometry x="904.5" y="913" width="220" height="127" as="geometry" />
        </mxCell>
        <mxCell id="k4Ie8rZXymBCQABj3Up5-14" value="AZ3" style="fillColor=none;strokeColor=#147EBA;dashed=1;verticalAlign=top;fontStyle=0;fontColor=#147EBA;align=right;horizontal=0;spacing=0;spacingRight=4;" vertex="1" parent="1">
          <mxGeometry x="902" y="1057.5" width="220" height="122.5" as="geometry" />
        </mxCell>
        <mxCell id="k4Ie8rZXymBCQABj3Up5-15" value="Private subnet - 10.0.1.0/24" style="points=[[0,0],[0.25,0],[0.5,0],[0.75,0],[1,0],[1,0.25],[1,0.5],[1,0.75],[1,1],[0.75,1],[0.5,1],[0.25,1],[0,1],[0,0.75],[0,0.5],[0,0.25]];outlineConnect=0;gradientColor=none;html=1;whiteSpace=wrap;fontSize=12;fontStyle=0;shape=mxgraph.aws4.group;grIcon=mxgraph.aws4.group_security_group;grStroke=0;strokeColor=#147EBA;fillColor=#E6F2F8;verticalAlign=top;align=left;spacingLeft=30;fontColor=#147EBA;dashed=0;" vertex="1" parent="1">
          <mxGeometry x="210" y="750" width="290" height="110" as="geometry" />
        </mxCell>
        <mxCell id="k4Ie8rZXymBCQABj3Up5-16" value="Private subnet - 10.0.2.0/24" style="points=[[0,0],[0.25,0],[0.5,0],[0.75,0],[1,0],[1,0.25],[1,0.5],[1,0.75],[1,1],[0.75,1],[0.5,1],[0.25,1],[0,1],[0,0.75],[0,0.5],[0,0.25]];outlineConnect=0;gradientColor=none;html=1;whiteSpace=wrap;fontSize=12;fontStyle=0;shape=mxgraph.aws4.group;grIcon=mxgraph.aws4.group_security_group;grStroke=0;strokeColor=#147EBA;fillColor=#E6F2F8;verticalAlign=top;align=left;spacingLeft=30;fontColor=#147EBA;dashed=0;" vertex="1" parent="1">
          <mxGeometry x="210" y="900.5" width="290" height="110" as="geometry" />
        </mxCell>
        <mxCell id="k4Ie8rZXymBCQABj3Up5-17" value="Private subnet - 10.0.3.0/24" style="points=[[0,0],[0.25,0],[0.5,0],[0.75,0],[1,0],[1,0.25],[1,0.5],[1,0.75],[1,1],[0.75,1],[0.5,1],[0.25,1],[0,1],[0,0.75],[0,0.5],[0,0.25]];outlineConnect=0;gradientColor=none;html=1;whiteSpace=wrap;fontSize=12;fontStyle=0;shape=mxgraph.aws4.group;grIcon=mxgraph.aws4.group_security_group;grStroke=0;strokeColor=#147EBA;fillColor=#E6F2F8;verticalAlign=top;align=left;spacingLeft=30;fontColor=#147EBA;dashed=0;" vertex="1" parent="1">
          <mxGeometry x="210" y="1062.5" width="290" height="110" as="geometry" />
        </mxCell>
        <mxCell id="k4Ie8rZXymBCQABj3Up5-18" value="Private subnet" style="points=[[0,0],[0.25,0],[0.5,0],[0.75,0],[1,0],[1,0.25],[1,0.5],[1,0.75],[1,1],[0.75,1],[0.5,1],[0.25,1],[0,1],[0,0.75],[0,0.5],[0,0.25]];outlineConnect=0;gradientColor=none;html=1;whiteSpace=wrap;fontSize=12;fontStyle=0;shape=mxgraph.aws4.group;grIcon=mxgraph.aws4.group_security_group;grStroke=0;strokeColor=#147EBA;fillColor=#E6F2F8;verticalAlign=top;align=left;spacingLeft=25;fontColor=#147EBA;dashed=0;" vertex="1" parent="1">
          <mxGeometry x="922.5" y="771" width="180" height="109" as="geometry" />
        </mxCell>
        <mxCell id="k4Ie8rZXymBCQABj3Up5-19" value="Private subnet" style="points=[[0,0],[0.25,0],[0.5,0],[0.75,0],[1,0],[1,0.25],[1,0.5],[1,0.75],[1,1],[0.75,1],[0.5,1],[0.25,1],[0,1],[0,0.75],[0,0.5],[0,0.25]];outlineConnect=0;gradientColor=none;html=1;whiteSpace=wrap;fontSize=12;fontStyle=0;shape=mxgraph.aws4.group;grIcon=mxgraph.aws4.group_security_group;grStroke=0;strokeColor=#147EBA;fillColor=#E6F2F8;verticalAlign=top;align=left;spacingLeft=25;fontColor=#147EBA;dashed=0;" vertex="1" parent="1">
          <mxGeometry x="924.5" y="923.5" width="180" height="106.5" as="geometry" />
        </mxCell>
        <mxCell id="k4Ie8rZXymBCQABj3Up5-20" value="Private subnet" style="points=[[0,0],[0.25,0],[0.5,0],[0.75,0],[1,0],[1,0.25],[1,0.5],[1,0.75],[1,1],[0.75,1],[0.5,1],[0.25,1],[0,1],[0,0.75],[0,0.5],[0,0.25]];outlineConnect=0;gradientColor=none;html=1;whiteSpace=wrap;fontSize=12;fontStyle=0;shape=mxgraph.aws4.group;grIcon=mxgraph.aws4.group_security_group;grStroke=0;strokeColor=#147EBA;fillColor=#E6F2F8;verticalAlign=top;align=left;spacingLeft=25;fontColor=#147EBA;dashed=0;" vertex="1" parent="1">
          <mxGeometry x="922" y="1067.5" width="180" height="102.5" as="geometry" />
        </mxCell>
        <mxCell id="k4Ie8rZXymBCQABj3Up5-21" value="Security group" style="fillColor=none;strokeColor=#DD3522;verticalAlign=top;fontStyle=0;fontColor=#DD3522;align=right;fontSize=10;spacing=0;spacingRight=2;" vertex="1" parent="1">
          <mxGeometry x="220" y="932.5" width="270" height="75" as="geometry" />
        </mxCell>
        <mxCell id="k4Ie8rZXymBCQABj3Up5-22" value="Security group" style="fillColor=none;strokeColor=#DD3522;verticalAlign=top;fontStyle=0;fontColor=#DD3522;align=right;fontSize=10;spacing=0;spacingRight=2;" vertex="1" parent="1">
          <mxGeometry x="220" y="1092.5" width="270" height="75" as="geometry" />
        </mxCell>
        <mxCell id="k4Ie8rZXymBCQABj3Up5-23" value="Security group" style="fillColor=none;strokeColor=#DD3522;verticalAlign=top;fontStyle=0;fontColor=#DD3522;align=right;fontSize=10;spacing=0;spacingLeft=0;spacingRight=2;" vertex="1" parent="1">
          <mxGeometry x="220" y="780" width="270" height="75" as="geometry" />
        </mxCell>
        <mxCell id="k4Ie8rZXymBCQABj3Up5-24" value="" style="outlineConnect=0;fontColor=#232F3E;gradientColor=none;fillColor=#5A30B5;strokeColor=none;dashed=0;verticalLabelPosition=bottom;verticalAlign=top;align=center;html=1;fontSize=12;fontStyle=0;aspect=fixed;pointerEvents=1;shape=mxgraph.aws4.elastic_network_interface;" vertex="1" parent="1">
          <mxGeometry x="270" y="951" width="30" height="30" as="geometry" />
        </mxCell>
        <mxCell id="k4Ie8rZXymBCQABj3Up5-25" value="" style="outlineConnect=0;fontColor=#232F3E;gradientColor=none;fillColor=#5A30B5;strokeColor=none;dashed=0;verticalLabelPosition=bottom;verticalAlign=top;align=center;html=1;fontSize=12;fontStyle=0;aspect=fixed;pointerEvents=1;shape=mxgraph.aws4.elastic_network_interface;" vertex="1" parent="1">
          <mxGeometry x="270" y="1115" width="30" height="30" as="geometry" />
        </mxCell>
        <mxCell id="k4Ie8rZXymBCQABj3Up5-26" value="" style="outlineConnect=0;fontColor=#232F3E;gradientColor=none;fillColor=#5A30B5;strokeColor=none;dashed=0;verticalLabelPosition=bottom;verticalAlign=top;align=center;html=1;fontSize=12;fontStyle=0;aspect=fixed;pointerEvents=1;shape=mxgraph.aws4.elastic_network_interface;" vertex="1" parent="1">
          <mxGeometry x="270" y="802.5" width="30" height="30" as="geometry" />
        </mxCell>
        <mxCell id="k4Ie8rZXymBCQABj3Up5-27" value="" style="edgeStyle=orthogonalEdgeStyle;rounded=0;orthogonalLoop=1;jettySize=auto;html=1;endArrow=none;endFill=0;fontSize=10;exitX=1;exitY=0.5;exitDx=0;exitDy=0;entryX=0;entryY=0.5;entryDx=0;entryDy=0;" edge="1" parent="1" source="k4Ie8rZXymBCQABj3Up5-29" target="k4Ie8rZXymBCQABj3Up5-47">
          <mxGeometry relative="1" as="geometry">
            <Array as="points">
              <mxPoint x="650" y="818" />
            </Array>
          </mxGeometry>
        </mxCell>
        <mxCell id="k4Ie8rZXymBCQABj3Up5-28" value="tcp/9094" style="edgeLabel;html=1;align=center;verticalAlign=middle;resizable=0;points=[];fontSize=10;labelBackgroundColor=none;" vertex="1" connectable="0" parent="k4Ie8rZXymBCQABj3Up5-27">
          <mxGeometry x="1" y="-245" relative="1" as="geometry">
            <mxPoint x="-127" y="235" as="offset" />
          </mxGeometry>
        </mxCell>
        <mxCell id="k4Ie8rZXymBCQABj3Up5-29" value="MSK ENI&lt;br&gt;10.0.1.x&lt;font style=&quot;font-size: 10px&quot;&gt;&lt;br style=&quot;font-size: 10px&quot;&gt;&lt;/font&gt;" style="text;html=1;strokeColor=none;fillColor=none;align=center;verticalAlign=middle;whiteSpace=wrap;rounded=0;fontSize=10;" vertex="1" parent="1">
          <mxGeometry x="300" y="807.5" width="45" height="20" as="geometry" />
        </mxCell>
        <mxCell id="k4Ie8rZXymBCQABj3Up5-30" value="" style="edgeStyle=orthogonalEdgeStyle;rounded=0;orthogonalLoop=1;jettySize=auto;html=1;endArrow=none;endFill=0;fontSize=10;entryX=0;entryY=0.5;entryDx=0;entryDy=0;" edge="1" parent="1" source="k4Ie8rZXymBCQABj3Up5-31" target="k4Ie8rZXymBCQABj3Up5-51">
          <mxGeometry relative="1" as="geometry" />
        </mxCell>
        <mxCell id="k4Ie8rZXymBCQABj3Up5-31" value="MSK ENI&lt;br&gt;10.0.2.x&lt;font style=&quot;font-size: 10px&quot;&gt;&lt;br style=&quot;font-size: 10px&quot;&gt;&lt;/font&gt;" style="text;html=1;strokeColor=none;fillColor=none;align=center;verticalAlign=middle;whiteSpace=wrap;rounded=0;fontSize=10;" vertex="1" parent="1">
          <mxGeometry x="300" y="956" width="45" height="20" as="geometry" />
        </mxCell>
        <mxCell id="k4Ie8rZXymBCQABj3Up5-32" value="" style="edgeStyle=orthogonalEdgeStyle;rounded=0;orthogonalLoop=1;jettySize=auto;html=1;endArrow=none;endFill=0;fontSize=10;entryX=0;entryY=0.5;entryDx=0;entryDy=0;" edge="1" parent="1" source="k4Ie8rZXymBCQABj3Up5-33" target="k4Ie8rZXymBCQABj3Up5-53">
          <mxGeometry relative="1" as="geometry" />
        </mxCell>
        <mxCell id="k4Ie8rZXymBCQABj3Up5-33" value="MSK ENI&lt;br&gt;10.0.3.x&lt;font style=&quot;font-size: 10px&quot;&gt;&lt;br style=&quot;font-size: 10px&quot;&gt;&lt;/font&gt;" style="text;html=1;strokeColor=none;fillColor=none;align=center;verticalAlign=middle;whiteSpace=wrap;rounded=0;fontSize=10;" vertex="1" parent="1">
          <mxGeometry x="300" y="1120" width="45" height="20" as="geometry" />
        </mxCell>
        <mxCell id="k4Ie8rZXymBCQABj3Up5-34" value="b-1.x.y.z.kafka.us-east-1.amazonaws.com:9094" style="text;html=1;strokeColor=none;fillColor=none;align=center;verticalAlign=middle;whiteSpace=wrap;rounded=0;fontSize=10;" vertex="1" parent="1">
          <mxGeometry x="240" y="827.5" width="220" height="20" as="geometry" />
        </mxCell>
        <mxCell id="k4Ie8rZXymBCQABj3Up5-35" value="b-2.x.y.z.kafka.us-east-1.amazonaws.com:9094" style="text;html=1;strokeColor=none;fillColor=none;align=center;verticalAlign=middle;whiteSpace=wrap;rounded=0;fontSize=10;" vertex="1" parent="1">
          <mxGeometry x="238" y="976" width="219" height="14" as="geometry" />
        </mxCell>
        <mxCell id="k4Ie8rZXymBCQABj3Up5-36" value="b-3.x.y.z.kafka.us-east-1.amazonaws.com:9094" style="text;html=1;strokeColor=none;fillColor=none;align=center;verticalAlign=middle;whiteSpace=wrap;rounded=0;fontSize=10;" vertex="1" parent="1">
          <mxGeometry x="235" y="1140" width="240" height="20" as="geometry" />
        </mxCell>
        <mxCell id="k4Ie8rZXymBCQABj3Up5-37" value="" style="outlineConnect=0;fontColor=#232F3E;gradientColor=none;fillColor=#5A30B5;strokeColor=none;dashed=0;verticalLabelPosition=bottom;verticalAlign=top;align=center;html=1;fontSize=12;fontStyle=0;aspect=fixed;pointerEvents=1;shape=mxgraph.aws4.network_load_balancer;" vertex="1" parent="1">
          <mxGeometry x="628" y="755" width="40" height="40" as="geometry" />
        </mxCell>
        <mxCell id="k4Ie8rZXymBCQABj3Up5-38" value="VPC Endpoint 2&lt;br style=&quot;font-size: 10px&quot;&gt;&lt;p style=&quot;margin-top: 0pt ; margin-bottom: 0pt ; margin-left: 0in ; direction: ltr ; unicode-bidi: embed ; word-break: normal ; font-size: 10px&quot;&gt;&lt;/p&gt;" style="outlineConnect=0;gradientColor=none;fillColor=#5A30B5;strokeColor=none;dashed=0;verticalLabelPosition=middle;verticalAlign=middle;align=center;html=1;fontSize=10;fontStyle=0;aspect=fixed;pointerEvents=1;shape=mxgraph.aws4.endpoints;labelPosition=left;spacing=0;spacingLeft=0;spacingBottom=-27;horizontal=0;" vertex="1" parent="1">
          <mxGeometry x="851.5" y="946" width="44" height="44" as="geometry" />
        </mxCell>
        <mxCell id="k4Ie8rZXymBCQABj3Up5-39" value="" style="edgeStyle=none;rounded=0;orthogonalLoop=1;jettySize=auto;html=1;endArrow=none;endFill=0;fontSize=10;" edge="1" parent="1" source="k4Ie8rZXymBCQABj3Up5-40" target="k4Ie8rZXymBCQABj3Up5-38">
          <mxGeometry relative="1" as="geometry" />
        </mxCell>
        <mxCell id="k4Ie8rZXymBCQABj3Up5-40" value="VPC&amp;nbsp; Endpoint&lt;br style=&quot;font-size: 10px;&quot;&gt;Service 2" style="outlineConnect=0;fontColor=#232F3E;gradientColor=#945DF2;gradientDirection=north;fillColor=#5A30B5;strokeColor=#ffffff;dashed=0;verticalLabelPosition=top;verticalAlign=bottom;align=center;html=1;fontSize=10;fontStyle=0;aspect=fixed;shape=mxgraph.aws4.resourceIcon;resIcon=mxgraph.aws4.vpc_privatelink;horizontal=1;labelPosition=center;" vertex="1" parent="1">
          <mxGeometry x="780" y="950" width="37" height="37" as="geometry" />
        </mxCell>
        <mxCell id="k4Ie8rZXymBCQABj3Up5-41" value="" style="rounded=0;orthogonalLoop=1;jettySize=auto;html=1;endArrow=none;endFill=0;fontSize=10;" edge="1" parent="1" source="k4Ie8rZXymBCQABj3Up5-44" target="k4Ie8rZXymBCQABj3Up5-65">
          <mxGeometry relative="1" as="geometry">
            <mxPoint x="1010.5" y="815" as="targetPoint" />
          </mxGeometry>
        </mxCell>
        <mxCell id="k4Ie8rZXymBCQABj3Up5-42" value="tcp/9094" style="edgeLabel;html=1;align=center;verticalAlign=middle;resizable=0;points=[];fontSize=10;labelBackgroundColor=none;" vertex="1" connectable="0" parent="k4Ie8rZXymBCQABj3Up5-41">
          <mxGeometry x="-0.5" y="-1" relative="1" as="geometry">
            <mxPoint x="23" y="4.5" as="offset" />
          </mxGeometry>
        </mxCell>
        <mxCell id="k4Ie8rZXymBCQABj3Up5-43" value="" style="rounded=0;orthogonalLoop=1;jettySize=auto;html=1;endArrow=none;endFill=0;" edge="1" parent="1" source="k4Ie8rZXymBCQABj3Up5-44">
          <mxGeometry relative="1" as="geometry">
            <mxPoint x="895.5" y="812.5405405405405" as="targetPoint" />
          </mxGeometry>
        </mxCell>
        <mxCell id="k4Ie8rZXymBCQABj3Up5-44" value="" style="outlineConnect=0;fontColor=#232F3E;gradientColor=none;fillColor=#5A30B5;strokeColor=none;dashed=0;verticalLabelPosition=bottom;verticalAlign=top;align=center;html=1;fontSize=12;fontStyle=0;aspect=fixed;pointerEvents=1;shape=mxgraph.aws4.elastic_network_interface;" vertex="1" parent="1">
          <mxGeometry x="941" y="799" width="21" height="21" as="geometry" />
        </mxCell>
        <mxCell id="k4Ie8rZXymBCQABj3Up5-45" value="" style="fillColor=none;strokeColor=#5A6C86;dashed=1;verticalAlign=top;fontStyle=0;fontColor=#5A6C86;align=center;" vertex="1" parent="1">
          <mxGeometry x="530" y="790" width="236" height="50" as="geometry" />
        </mxCell>
        <mxCell id="k4Ie8rZXymBCQABj3Up5-46" value="" style="edgeStyle=orthogonalEdgeStyle;rounded=0;orthogonalLoop=1;jettySize=auto;html=1;endArrow=none;endFill=0;fontSize=10;" edge="1" parent="1" source="k4Ie8rZXymBCQABj3Up5-47" target="k4Ie8rZXymBCQABj3Up5-49">
          <mxGeometry relative="1" as="geometry" />
        </mxCell>
        <mxCell id="k4Ie8rZXymBCQABj3Up5-47" value="Target Group Broker 1 - 9094" style="rounded=0;whiteSpace=wrap;html=1;align=center;fillColor=#fff2cc;strokeColor=none;" vertex="1" parent="1">
          <mxGeometry x="537" y="802.5" width="100" height="30" as="geometry" />
        </mxCell>
        <mxCell id="k4Ie8rZXymBCQABj3Up5-48" style="rounded=0;orthogonalLoop=1;jettySize=auto;html=1;exitX=1;exitY=0.5;exitDx=0;exitDy=0;endArrow=none;endFill=0;fontSize=10;" edge="1" parent="1" source="k4Ie8rZXymBCQABj3Up5-49" target="k4Ie8rZXymBCQABj3Up5-103">
          <mxGeometry relative="1" as="geometry" />
        </mxCell>
        <mxCell id="k4Ie8rZXymBCQABj3Up5-49" value="Listener &lt;br&gt;Broker 1 - 9094" style="rounded=0;whiteSpace=wrap;html=1;align=center;fillColor=#fff2cc;strokeColor=none;" vertex="1" parent="1">
          <mxGeometry x="656" y="802.5" width="100" height="30" as="geometry" />
        </mxCell>
        <mxCell id="k4Ie8rZXymBCQABj3Up5-50" value="" style="edgeStyle=orthogonalEdgeStyle;rounded=0;orthogonalLoop=1;jettySize=auto;html=1;endArrow=none;endFill=0;fontSize=10;" edge="1" parent="1" source="k4Ie8rZXymBCQABj3Up5-51" target="k4Ie8rZXymBCQABj3Up5-54">
          <mxGeometry relative="1" as="geometry" />
        </mxCell>
        <mxCell id="k4Ie8rZXymBCQABj3Up5-51" value="Target Group Broker 2 - 9094" style="rounded=0;whiteSpace=wrap;html=1;align=center;fillColor=#fff2cc;strokeColor=none;" vertex="1" parent="1">
          <mxGeometry x="538.5" y="951" width="100" height="30" as="geometry" />
        </mxCell>
        <mxCell id="k4Ie8rZXymBCQABj3Up5-52" value="" style="edgeStyle=orthogonalEdgeStyle;rounded=0;orthogonalLoop=1;jettySize=auto;html=1;endArrow=none;endFill=0;fontSize=10;" edge="1" parent="1" source="k4Ie8rZXymBCQABj3Up5-53" target="k4Ie8rZXymBCQABj3Up5-55">
          <mxGeometry relative="1" as="geometry" />
        </mxCell>
        <mxCell id="k4Ie8rZXymBCQABj3Up5-53" value="Target Group Broker 3 - 9094" style="rounded=0;whiteSpace=wrap;html=1;align=center;fillColor=#fff2cc;strokeColor=none;" vertex="1" parent="1">
          <mxGeometry x="537" y="1115" width="100" height="30" as="geometry" />
        </mxCell>
        <mxCell id="k4Ie8rZXymBCQABj3Up5-54" value="Listener &lt;br&gt;Broker 2 - 9094" style="rounded=0;whiteSpace=wrap;html=1;align=center;fillColor=#fff2cc;strokeColor=none;" vertex="1" parent="1">
          <mxGeometry x="657.5" y="951" width="100" height="30" as="geometry" />
        </mxCell>
        <mxCell id="k4Ie8rZXymBCQABj3Up5-55" value="Listener &lt;br&gt;Broker 3 - 9094" style="rounded=0;whiteSpace=wrap;html=1;align=center;fillColor=#fff2cc;strokeColor=none;" vertex="1" parent="1">
          <mxGeometry x="656" y="1115" width="100" height="30" as="geometry" />
        </mxCell>
        <mxCell id="k4Ie8rZXymBCQABj3Up5-57" value="" style="outlineConnect=0;fontColor=#232F3E;gradientColor=#945DF2;gradientDirection=north;fillColor=#5A30B5;strokeColor=#ffffff;dashed=0;verticalLabelPosition=bottom;verticalAlign=top;align=left;html=1;fontSize=12;fontStyle=0;aspect=fixed;shape=mxgraph.aws4.resourceIcon;resIcon=mxgraph.aws4.managed_streaming_for_kafka;" vertex="1" parent="1">
          <mxGeometry x="49.99913043478263" y="670" width="18.260869565217394" height="18.260869565217394" as="geometry" />
        </mxCell>
        <mxCell id="k4Ie8rZXymBCQABj3Up5-58" value="Amazon MSK&lt;br&gt;Broker Node 1" style="rounded=0;whiteSpace=wrap;html=1;align=center;fillColor=#ffe6cc;strokeColor=#d79b00;" vertex="1" parent="1">
          <mxGeometry x="69.99782608695652" y="787.5" width="73.04347826086958" height="60" as="geometry" />
        </mxCell>
        <mxCell id="k4Ie8rZXymBCQABj3Up5-59" value="Amazon MSK&lt;br&gt;Broker Node 2" style="rounded=0;whiteSpace=wrap;html=1;align=center;fillColor=#ffe6cc;strokeColor=#d79b00;" vertex="1" parent="1">
          <mxGeometry x="69.99782608695654" y="936" width="73.04347826086958" height="60" as="geometry" />
        </mxCell>
        <mxCell id="k4Ie8rZXymBCQABj3Up5-60" value="" style="edgeStyle=orthogonalEdgeStyle;rounded=0;orthogonalLoop=1;jettySize=auto;html=1;fontSize=10;endArrow=none;endFill=0;" edge="1" parent="1" source="k4Ie8rZXymBCQABj3Up5-61" target="k4Ie8rZXymBCQABj3Up5-25">
          <mxGeometry relative="1" as="geometry">
            <mxPoint x="227.391304347826" y="1122.5" as="targetPoint" />
          </mxGeometry>
        </mxCell>
        <mxCell id="k4Ie8rZXymBCQABj3Up5-61" value="Amazon MSK&lt;br&gt;Broker Node 3" style="rounded=0;whiteSpace=wrap;html=1;align=center;fillColor=#ffe6cc;strokeColor=#d79b00;" vertex="1" parent="1">
          <mxGeometry x="69.99782608695654" y="1100" width="73.04347826086958" height="60" as="geometry" />
        </mxCell>
        <mxCell id="k4Ie8rZXymBCQABj3Up5-62" value="" style="edgeStyle=orthogonalEdgeStyle;rounded=0;orthogonalLoop=1;jettySize=auto;html=1;fontSize=10;endArrow=none;endFill=0;" edge="1" parent="1" source="k4Ie8rZXymBCQABj3Up5-59" target="k4Ie8rZXymBCQABj3Up5-24">
          <mxGeometry relative="1" as="geometry" />
        </mxCell>
        <mxCell id="k4Ie8rZXymBCQABj3Up5-63" value="" style="edgeStyle=orthogonalEdgeStyle;rounded=0;orthogonalLoop=1;jettySize=auto;html=1;fontSize=10;endArrow=none;endFill=0;" edge="1" parent="1" source="k4Ie8rZXymBCQABj3Up5-58" target="k4Ie8rZXymBCQABj3Up5-26">
          <mxGeometry relative="1" as="geometry" />
        </mxCell>
        <mxCell id="k4Ie8rZXymBCQABj3Up5-65" value="" style="outlineConnect=0;fontColor=#232F3E;gradientColor=none;strokeColor=none;dashed=0;verticalLabelPosition=bottom;verticalAlign=top;align=center;html=1;fontSize=12;fontStyle=0;aspect=fixed;pointerEvents=1;shape=mxgraph.aws4.client;strokeWidth=1;fillColor=#4D4D4D;" vertex="1" parent="1">
          <mxGeometry x="1046" y="803.5" width="25.66" height="25" as="geometry" />
        </mxCell>
        <mxCell id="k4Ie8rZXymBCQABj3Up5-66" value="&lt;font style=&quot;font-size: 10px&quot;&gt;ENI&lt;br style=&quot;font-size: 10px&quot;&gt;&lt;/font&gt;" style="text;html=1;strokeColor=none;fillColor=none;align=center;verticalAlign=middle;whiteSpace=wrap;rounded=0;fontSize=10;" vertex="1" parent="1">
          <mxGeometry x="959" y="792" width="29" height="20" as="geometry" />
        </mxCell>
        <mxCell id="k4Ie8rZXymBCQABj3Up5-67" value="tcp/9094" style="edgeLabel;html=1;align=center;verticalAlign=middle;resizable=0;points=[];fontSize=10;labelBackgroundColor=none;" vertex="1" connectable="0" parent="1">
          <mxGeometry x="430" y="817.5" as="geometry">
            <mxPoint x="-18" y="141" as="offset" />
          </mxGeometry>
        </mxCell>
        <mxCell id="k4Ie8rZXymBCQABj3Up5-68" value="tcp/9094" style="edgeLabel;html=1;align=center;verticalAlign=middle;resizable=0;points=[];fontSize=10;labelBackgroundColor=none;" vertex="1" connectable="0" parent="1">
          <mxGeometry x="430" y="986" as="geometry">
            <mxPoint x="-15" y="135" as="offset" />
          </mxGeometry>
        </mxCell>
        <mxCell id="k4Ie8rZXymBCQABj3Up5-69" style="rounded=0;orthogonalLoop=1;jettySize=auto;html=1;exitX=1;exitY=0.5;exitDx=0;exitDy=0;endArrow=none;endFill=0;fontSize=10;" edge="1" parent="1" source="k4Ie8rZXymBCQABj3Up5-55" target="k4Ie8rZXymBCQABj3Up5-104">
          <mxGeometry relative="1" as="geometry">
            <mxPoint x="766" y="827.5" as="sourcePoint" />
            <mxPoint x="810.3163841807909" y="975.5" as="targetPoint" />
          </mxGeometry>
        </mxCell>
        <mxCell id="k4Ie8rZXymBCQABj3Up5-70" style="rounded=0;orthogonalLoop=1;jettySize=auto;html=1;endArrow=none;endFill=0;fontSize=10;exitX=1;exitY=0.5;exitDx=0;exitDy=0;" edge="1" parent="1" source="k4Ie8rZXymBCQABj3Up5-54">
          <mxGeometry relative="1" as="geometry">
            <mxPoint x="766" y="827.5" as="sourcePoint" />
            <mxPoint x="780" y="966" as="targetPoint" />
            <Array as="points">
              <mxPoint x="780" y="966" />
            </Array>
          </mxGeometry>
        </mxCell>
        <mxCell id="k4Ie8rZXymBCQABj3Up5-97" value="&lt;font style=&quot;font-size: 10px&quot;&gt;NLB1&lt;br style=&quot;font-size: 10px&quot;&gt;&lt;/font&gt;" style="text;html=1;strokeColor=none;fillColor=none;align=center;verticalAlign=middle;whiteSpace=wrap;rounded=0;fontSize=10;" vertex="1" parent="1">
          <mxGeometry x="660.5" y="765" width="45" height="20" as="geometry" />
        </mxCell>
        <mxCell id="k4Ie8rZXymBCQABj3Up5-98" value="" style="outlineConnect=0;fontColor=#232F3E;gradientColor=none;fillColor=#5A30B5;strokeColor=none;dashed=0;verticalLabelPosition=bottom;verticalAlign=top;align=center;html=1;fontSize=12;fontStyle=0;aspect=fixed;pointerEvents=1;shape=mxgraph.aws4.network_load_balancer;" vertex="1" parent="1">
          <mxGeometry x="628" y="905" width="40" height="40" as="geometry" />
        </mxCell>
        <mxCell id="k4Ie8rZXymBCQABj3Up5-99" value="&lt;font style=&quot;font-size: 10px&quot;&gt;NLB2&lt;br style=&quot;font-size: 10px&quot;&gt;&lt;/font&gt;" style="text;html=1;strokeColor=none;fillColor=none;align=center;verticalAlign=middle;whiteSpace=wrap;rounded=0;fontSize=10;" vertex="1" parent="1">
          <mxGeometry x="660.5" y="915" width="45" height="20" as="geometry" />
        </mxCell>
        <mxCell id="k4Ie8rZXymBCQABj3Up5-100" value="" style="outlineConnect=0;fontColor=#232F3E;gradientColor=none;fillColor=#5A30B5;strokeColor=none;dashed=0;verticalLabelPosition=bottom;verticalAlign=top;align=center;html=1;fontSize=12;fontStyle=0;aspect=fixed;pointerEvents=1;shape=mxgraph.aws4.network_load_balancer;" vertex="1" parent="1">
          <mxGeometry x="628" y="1070" width="40" height="40" as="geometry" />
        </mxCell>
        <mxCell id="k4Ie8rZXymBCQABj3Up5-101" value="&lt;font style=&quot;font-size: 10px&quot;&gt;NLB3&lt;br style=&quot;font-size: 10px&quot;&gt;&lt;/font&gt;" style="text;html=1;strokeColor=none;fillColor=none;align=center;verticalAlign=middle;whiteSpace=wrap;rounded=0;fontSize=10;" vertex="1" parent="1">
          <mxGeometry x="660.5" y="1080" width="45" height="20" as="geometry" />
        </mxCell>
        <mxCell id="k4Ie8rZXymBCQABj3Up5-102" value="" style="edgeStyle=none;rounded=0;orthogonalLoop=1;jettySize=auto;html=1;endArrow=none;endFill=0;" edge="1" parent="1" source="k4Ie8rZXymBCQABj3Up5-103" target="k4Ie8rZXymBCQABj3Up5-105">
          <mxGeometry relative="1" as="geometry" />
        </mxCell>
        <mxCell id="k4Ie8rZXymBCQABj3Up5-103" value="VPC&amp;nbsp; Endpoint&lt;br style=&quot;font-size: 10px;&quot;&gt;Service 1" style="outlineConnect=0;fontColor=#232F3E;gradientColor=#945DF2;gradientDirection=north;fillColor=#5A30B5;strokeColor=#ffffff;dashed=0;verticalLabelPosition=top;verticalAlign=bottom;align=center;html=1;fontSize=10;fontStyle=0;aspect=fixed;shape=mxgraph.aws4.resourceIcon;resIcon=mxgraph.aws4.vpc_privatelink;horizontal=1;labelPosition=center;" vertex="1" parent="1">
          <mxGeometry x="780" y="800" width="36" height="36" as="geometry" />
        </mxCell>
        <mxCell id="k4Ie8rZXymBCQABj3Up5-104" value="VPC&amp;nbsp; Endpoint&lt;br style=&quot;font-size: 10px;&quot;&gt;Service 2" style="outlineConnect=0;fontColor=#232F3E;gradientColor=#945DF2;gradientDirection=north;fillColor=#5A30B5;strokeColor=#ffffff;dashed=0;verticalLabelPosition=top;verticalAlign=bottom;align=center;html=1;fontSize=10;fontStyle=0;aspect=fixed;shape=mxgraph.aws4.resourceIcon;resIcon=mxgraph.aws4.vpc_privatelink;horizontal=1;labelPosition=center;" vertex="1" parent="1">
          <mxGeometry x="780" y="1111.5" width="37" height="37" as="geometry" />
        </mxCell>
        <mxCell id="k4Ie8rZXymBCQABj3Up5-105" value="VPC Endpoint 1&lt;br style=&quot;font-size: 10px&quot;&gt;&lt;p style=&quot;margin-top: 0pt ; margin-bottom: 0pt ; margin-left: 0in ; direction: ltr ; unicode-bidi: embed ; word-break: normal ; font-size: 10px&quot;&gt;&lt;/p&gt;" style="outlineConnect=0;gradientColor=none;fillColor=#5A30B5;strokeColor=none;dashed=0;verticalLabelPosition=middle;verticalAlign=middle;align=right;html=1;fontSize=10;fontStyle=0;aspect=fixed;pointerEvents=1;shape=mxgraph.aws4.endpoints;labelPosition=left;spacing=0;spacingLeft=0;horizontal=0;spacingBottom=-27;" vertex="1" parent="1">
          <mxGeometry x="851.5" y="796.5" width="44" height="44" as="geometry" />
        </mxCell>
        <mxCell id="k4Ie8rZXymBCQABj3Up5-144" value="" style="edgeStyle=none;rounded=0;orthogonalLoop=1;jettySize=auto;html=1;endArrow=none;endFill=0;fontSize=10;" edge="1" parent="1" source="k4Ie8rZXymBCQABj3Up5-106" target="k4Ie8rZXymBCQABj3Up5-104">
          <mxGeometry relative="1" as="geometry" />
        </mxCell>
        <mxCell id="k4Ie8rZXymBCQABj3Up5-106" value="VPC Endpoint 3&lt;br style=&quot;font-size: 10px&quot;&gt;&lt;p style=&quot;margin-top: 0pt; margin-bottom: 0pt; margin-left: 0in; direction: ltr; unicode-bidi: embed; word-break: normal; font-size: 10px;&quot;&gt;&lt;/p&gt;" style="outlineConnect=0;gradientColor=none;fillColor=#5A30B5;strokeColor=none;dashed=0;verticalLabelPosition=middle;verticalAlign=middle;align=center;html=1;fontSize=10;fontStyle=0;aspect=fixed;pointerEvents=1;shape=mxgraph.aws4.endpoints;labelPosition=left;spacingBottom=-27;horizontal=0;spacing=0;" vertex="1" parent="1">
          <mxGeometry x="850" y="1107" width="44" height="44" as="geometry" />
        </mxCell>
        <mxCell id="k4Ie8rZXymBCQABj3Up5-107" value="" style="edgeStyle=none;rounded=0;orthogonalLoop=1;jettySize=auto;html=1;endArrow=none;endFill=0;" edge="1" parent="1" source="k4Ie8rZXymBCQABj3Up5-108" target="k4Ie8rZXymBCQABj3Up5-38">
          <mxGeometry relative="1" as="geometry" />
        </mxCell>
        <mxCell id="k4Ie8rZXymBCQABj3Up5-108" value="" style="outlineConnect=0;fontColor=#232F3E;gradientColor=none;fillColor=#5A30B5;strokeColor=none;dashed=0;verticalLabelPosition=bottom;verticalAlign=top;align=center;html=1;fontSize=12;fontStyle=0;aspect=fixed;pointerEvents=1;shape=mxgraph.aws4.elastic_network_interface;" vertex="1" parent="1">
          <mxGeometry x="941.25" y="825" width="20.5" height="20.5" as="geometry" />
        </mxCell>
        <mxCell id="k4Ie8rZXymBCQABj3Up5-109" value="" style="edgeStyle=none;rounded=0;orthogonalLoop=1;jettySize=auto;html=1;endArrow=none;endFill=0;" edge="1" parent="1" source="k4Ie8rZXymBCQABj3Up5-110" target="k4Ie8rZXymBCQABj3Up5-106">
          <mxGeometry relative="1" as="geometry" />
        </mxCell>
        <mxCell id="k4Ie8rZXymBCQABj3Up5-110" value="" style="outlineConnect=0;fontColor=#232F3E;gradientColor=none;fillColor=#5A30B5;strokeColor=none;dashed=0;verticalLabelPosition=bottom;verticalAlign=top;align=center;html=1;fontSize=12;fontStyle=0;aspect=fixed;pointerEvents=1;shape=mxgraph.aws4.elastic_network_interface;" vertex="1" parent="1">
          <mxGeometry x="941.25" y="849.5" width="20.5" height="20.5" as="geometry" />
        </mxCell>
        <mxCell id="k4Ie8rZXymBCQABj3Up5-111" value="&lt;font style=&quot;font-size: 10px&quot;&gt;ENI&lt;br style=&quot;font-size: 10px&quot;&gt;&lt;/font&gt;" style="text;html=1;strokeColor=none;fillColor=none;align=center;verticalAlign=middle;whiteSpace=wrap;rounded=0;fontSize=10;" vertex="1" parent="1">
          <mxGeometry x="959" y="850" width="29" height="20" as="geometry" />
        </mxCell>
        <mxCell id="k4Ie8rZXymBCQABj3Up5-112" value="&lt;font style=&quot;font-size: 10px&quot;&gt;ENI&lt;br style=&quot;font-size: 10px&quot;&gt;&lt;/font&gt;" style="text;html=1;strokeColor=none;fillColor=none;align=center;verticalAlign=middle;whiteSpace=wrap;rounded=0;fontSize=10;" vertex="1" parent="1">
          <mxGeometry x="959" y="822" width="29" height="20" as="geometry" />
        </mxCell>
        <mxCell id="k4Ie8rZXymBCQABj3Up5-113" value="" style="edgeStyle=none;rounded=0;orthogonalLoop=1;jettySize=auto;html=1;endArrow=none;endFill=0;" edge="1" parent="1" source="k4Ie8rZXymBCQABj3Up5-114" target="k4Ie8rZXymBCQABj3Up5-105">
          <mxGeometry relative="1" as="geometry" />
        </mxCell>
        <mxCell id="k4Ie8rZXymBCQABj3Up5-114" value="" style="outlineConnect=0;fontColor=#232F3E;gradientColor=none;fillColor=#5A30B5;strokeColor=none;dashed=0;verticalLabelPosition=bottom;verticalAlign=top;align=center;html=1;fontSize=12;fontStyle=0;aspect=fixed;pointerEvents=1;shape=mxgraph.aws4.elastic_network_interface;" vertex="1" parent="1">
          <mxGeometry x="941" y="957" width="21" height="21" as="geometry" />
        </mxCell>
        <mxCell id="k4Ie8rZXymBCQABj3Up5-115" value="&lt;font style=&quot;font-size: 10px&quot;&gt;ENI&lt;br style=&quot;font-size: 10px&quot;&gt;&lt;/font&gt;" style="text;html=1;strokeColor=none;fillColor=none;align=center;verticalAlign=middle;whiteSpace=wrap;rounded=0;fontSize=10;" vertex="1" parent="1">
          <mxGeometry x="959" y="950" width="29" height="20" as="geometry" />
        </mxCell>
        <mxCell id="k4Ie8rZXymBCQABj3Up5-116" value="" style="edgeStyle=none;rounded=0;orthogonalLoop=1;jettySize=auto;html=1;endArrow=none;endFill=0;" edge="1" parent="1" source="k4Ie8rZXymBCQABj3Up5-117" target="k4Ie8rZXymBCQABj3Up5-38">
          <mxGeometry relative="1" as="geometry" />
        </mxCell>
        <mxCell id="k4Ie8rZXymBCQABj3Up5-117" value="" style="outlineConnect=0;fontColor=#232F3E;gradientColor=none;fillColor=#5A30B5;strokeColor=none;dashed=0;verticalLabelPosition=bottom;verticalAlign=top;align=center;html=1;fontSize=12;fontStyle=0;aspect=fixed;pointerEvents=1;shape=mxgraph.aws4.elastic_network_interface;" vertex="1" parent="1">
          <mxGeometry x="941.25" y="983" width="20.5" height="20.5" as="geometry" />
        </mxCell>
        <mxCell id="k4Ie8rZXymBCQABj3Up5-118" value="" style="edgeStyle=none;rounded=0;orthogonalLoop=1;jettySize=auto;html=1;endArrow=none;endFill=0;" edge="1" parent="1" source="k4Ie8rZXymBCQABj3Up5-119">
          <mxGeometry relative="1" as="geometry">
            <mxPoint x="880" y="1100" as="targetPoint" />
          </mxGeometry>
        </mxCell>
        <mxCell id="k4Ie8rZXymBCQABj3Up5-119" value="" style="outlineConnect=0;fontColor=#232F3E;gradientColor=none;fillColor=#5A30B5;strokeColor=none;dashed=0;verticalLabelPosition=bottom;verticalAlign=top;align=center;html=1;fontSize=12;fontStyle=0;aspect=fixed;pointerEvents=1;shape=mxgraph.aws4.elastic_network_interface;" vertex="1" parent="1">
          <mxGeometry x="941.25" y="1007.5" width="20.5" height="20.5" as="geometry" />
        </mxCell>
        <mxCell id="k4Ie8rZXymBCQABj3Up5-120" value="&lt;font style=&quot;font-size: 10px&quot;&gt;ENI&lt;br style=&quot;font-size: 10px&quot;&gt;&lt;/font&gt;" style="text;html=1;strokeColor=none;fillColor=none;align=center;verticalAlign=middle;whiteSpace=wrap;rounded=0;fontSize=10;" vertex="1" parent="1">
          <mxGeometry x="959" y="1008" width="29" height="20" as="geometry" />
        </mxCell>
        <mxCell id="k4Ie8rZXymBCQABj3Up5-121" value="&lt;font style=&quot;font-size: 10px&quot;&gt;ENI&lt;br style=&quot;font-size: 10px&quot;&gt;&lt;/font&gt;" style="text;html=1;strokeColor=none;fillColor=none;align=center;verticalAlign=middle;whiteSpace=wrap;rounded=0;fontSize=10;" vertex="1" parent="1">
          <mxGeometry x="959" y="980" width="29" height="20" as="geometry" />
        </mxCell>
        <mxCell id="k4Ie8rZXymBCQABj3Up5-122" value="" style="outlineConnect=0;fontColor=#232F3E;gradientColor=none;fillColor=#5A30B5;strokeColor=none;dashed=0;verticalLabelPosition=bottom;verticalAlign=top;align=center;html=1;fontSize=12;fontStyle=0;aspect=fixed;pointerEvents=1;shape=mxgraph.aws4.elastic_network_interface;" vertex="1" parent="1">
          <mxGeometry x="941" y="1097.5" width="21" height="21" as="geometry" />
        </mxCell>
        <mxCell id="k4Ie8rZXymBCQABj3Up5-123" value="" style="edgeStyle=none;rounded=0;orthogonalLoop=1;jettySize=auto;html=1;endArrow=none;endFill=0;entryX=0.648;entryY=0.989;entryDx=0;entryDy=0;entryPerimeter=0;" edge="1" parent="1" source="k4Ie8rZXymBCQABj3Up5-122" target="k4Ie8rZXymBCQABj3Up5-105">
          <mxGeometry relative="1" as="geometry" />
        </mxCell>
        <mxCell id="k4Ie8rZXymBCQABj3Up5-124" value="&lt;font style=&quot;font-size: 10px&quot;&gt;ENI&lt;br style=&quot;font-size: 10px&quot;&gt;&lt;/font&gt;" style="text;html=1;strokeColor=none;fillColor=none;align=center;verticalAlign=middle;whiteSpace=wrap;rounded=0;fontSize=10;" vertex="1" parent="1">
          <mxGeometry x="959" y="1090.5" width="29" height="20" as="geometry" />
        </mxCell>
        <mxCell id="k4Ie8rZXymBCQABj3Up5-125" value="" style="edgeStyle=none;rounded=0;orthogonalLoop=1;jettySize=auto;html=1;endArrow=none;endFill=0;" edge="1" parent="1" source="k4Ie8rZXymBCQABj3Up5-126" target="k4Ie8rZXymBCQABj3Up5-38">
          <mxGeometry relative="1" as="geometry" />
        </mxCell>
        <mxCell id="k4Ie8rZXymBCQABj3Up5-126" value="" style="outlineConnect=0;fontColor=#232F3E;gradientColor=none;fillColor=#5A30B5;strokeColor=none;dashed=0;verticalLabelPosition=bottom;verticalAlign=top;align=center;html=1;fontSize=12;fontStyle=0;aspect=fixed;pointerEvents=1;shape=mxgraph.aws4.elastic_network_interface;" vertex="1" parent="1">
          <mxGeometry x="941.25" y="1123.5" width="20.5" height="20.5" as="geometry" />
        </mxCell>
        <mxCell id="k4Ie8rZXymBCQABj3Up5-127" value="" style="edgeStyle=none;rounded=0;orthogonalLoop=1;jettySize=auto;html=1;endArrow=none;endFill=0;" edge="1" parent="1" source="k4Ie8rZXymBCQABj3Up5-128" target="k4Ie8rZXymBCQABj3Up5-106">
          <mxGeometry relative="1" as="geometry" />
        </mxCell>
        <mxCell id="k4Ie8rZXymBCQABj3Up5-128" value="" style="outlineConnect=0;fontColor=#232F3E;gradientColor=none;fillColor=#5A30B5;strokeColor=none;dashed=0;verticalLabelPosition=bottom;verticalAlign=top;align=center;html=1;fontSize=12;fontStyle=0;aspect=fixed;pointerEvents=1;shape=mxgraph.aws4.elastic_network_interface;" vertex="1" parent="1">
          <mxGeometry x="941.25" y="1148" width="20.5" height="20.5" as="geometry" />
        </mxCell>
        <mxCell id="k4Ie8rZXymBCQABj3Up5-129" value="&lt;font style=&quot;font-size: 10px&quot;&gt;ENI&lt;br style=&quot;font-size: 10px&quot;&gt;&lt;/font&gt;" style="text;html=1;strokeColor=none;fillColor=none;align=center;verticalAlign=middle;whiteSpace=wrap;rounded=0;fontSize=10;" vertex="1" parent="1">
          <mxGeometry x="959" y="1148.5" width="29" height="20" as="geometry" />
        </mxCell>
        <mxCell id="k4Ie8rZXymBCQABj3Up5-130" value="&lt;font style=&quot;font-size: 10px&quot;&gt;ENI&lt;br style=&quot;font-size: 10px&quot;&gt;&lt;/font&gt;" style="text;html=1;strokeColor=none;fillColor=none;align=center;verticalAlign=middle;whiteSpace=wrap;rounded=0;fontSize=10;" vertex="1" parent="1">
          <mxGeometry x="959" y="1120.5" width="29" height="20" as="geometry" />
        </mxCell>
        <mxCell id="k4Ie8rZXymBCQABj3Up5-132" value="6" style="ellipse;whiteSpace=wrap;html=1;aspect=fixed;strokeWidth=2;fontFamily=Tahoma;spacingBottom=4;spacingRight=2;strokeColor=#d3d3d3;labelBackgroundColor=none;fillColor=#4D4D4D;align=left;fontColor=#FFFFFF;spacingLeft=4;" vertex="1" parent="1">
          <mxGeometry x="227" y="390" width="20" height="20" as="geometry" />
        </mxCell>
        <mxCell id="k4Ie8rZXymBCQABj3Up5-133" value="6" style="ellipse;whiteSpace=wrap;html=1;aspect=fixed;strokeWidth=2;fontFamily=Tahoma;spacingBottom=4;spacingRight=2;strokeColor=#d3d3d3;labelBackgroundColor=none;fillColor=#4D4D4D;align=left;fontColor=#FFFFFF;spacingLeft=4;" vertex="1" parent="1">
          <mxGeometry x="230" y="552.5" width="20" height="20" as="geometry" />
        </mxCell>
        <mxCell id="k4Ie8rZXymBCQABj3Up5-134" value="&lt;font style=&quot;font-size: 10px&quot;&gt;Metadata fetch: b-2.x.y.z.kafka.us-east-1.amazonaws.com:9094&lt;br style=&quot;font-size: 10px&quot;&gt;&lt;/font&gt;" style="text;html=1;strokeColor=#b85450;fillColor=#f8cecc;align=center;verticalAlign=middle;whiteSpace=wrap;rounded=0;fontSize=10;" vertex="1" parent="1">
          <mxGeometry x="969.5" y="270" width="156" height="25" as="geometry" />
        </mxCell>
        <mxCell id="k4Ie8rZXymBCQABj3Up5-136" value="5b" style="ellipse;whiteSpace=wrap;html=1;aspect=fixed;strokeWidth=2;fontFamily=Tahoma;spacingBottom=4;spacingRight=0;strokeColor=#d3d3d3;labelBackgroundColor=none;fillColor=#4D4D4D;align=left;fontColor=#FFFFFF;spacingLeft=2;" vertex="1" parent="1">
          <mxGeometry x="490" y="232.5" width="20" height="20" as="geometry" />
        </mxCell>
        <mxCell id="k4Ie8rZXymBCQABj3Up5-137" value="6" style="ellipse;whiteSpace=wrap;html=1;aspect=fixed;strokeWidth=2;fontFamily=Tahoma;spacingBottom=4;spacingRight=2;strokeColor=#d3d3d3;labelBackgroundColor=none;fillColor=#4D4D4D;align=left;fontColor=#FFFFFF;spacingLeft=4;" vertex="1" parent="1">
          <mxGeometry x="227" y="242" width="20" height="20" as="geometry" />
        </mxCell>
        <mxCell id="k4Ie8rZXymBCQABj3Up5-150" value="" style="endArrow=classic;html=1;strokeColor=#FFB570;strokeWidth=2;jumpSize=6;entryX=0.875;entryY=0.023;entryDx=0;entryDy=0;entryPerimeter=0;" edge="1" parent="1" target="YOj0RfPdQwlDos6cRO1P-29">
          <mxGeometry width="50" height="50" relative="1" as="geometry">
            <mxPoint x="1056" y="230" as="sourcePoint" />
            <mxPoint x="905.5" y="228.69130434782608" as="targetPoint" />
          </mxGeometry>
        </mxCell>
        <mxCell id="J3hpJYSXND3omHvZxPC7-19" value="7" style="ellipse;whiteSpace=wrap;html=1;aspect=fixed;strokeWidth=2;fontFamily=Tahoma;spacingBottom=4;spacingRight=2;strokeColor=#d3d3d3;labelBackgroundColor=none;fillColor=#4D4D4D;align=left;fontColor=#FFFFFF;spacingLeft=4;" parent="1" vertex="1">
          <mxGeometry x="1115" y="290" width="20" height="20" as="geometry" />
        </mxCell>
        <mxCell id="YOj0RfPdQwlDos6cRO1P-99" value="1" style="ellipse;whiteSpace=wrap;html=1;aspect=fixed;strokeWidth=2;fontFamily=Tahoma;spacingBottom=4;spacingRight=2;strokeColor=#d3d3d3;labelBackgroundColor=none;fillColor=#4D4D4D;align=left;fontColor=#FFFFFF;spacingLeft=4;" parent="1" vertex="1">
          <mxGeometry x="1100.66" y="179" width="20" height="20" as="geometry" />
        </mxCell>
        <mxCell id="k4Ie8rZXymBCQABj3Up5-152" value="" style="endArrow=classic;html=1;strokeColor=#FFB570;strokeWidth=2;jumpSize=6;" edge="1" parent="1">
          <mxGeometry width="50" height="50" relative="1" as="geometry">
            <mxPoint x="851.5" y="380.14666666666665" as="sourcePoint" />
            <mxPoint x="817" y="380.37666666666667" as="targetPoint" />
            <Array as="points" />
          </mxGeometry>
        </mxCell>
        <mxCell id="k4Ie8rZXymBCQABj3Up5-153" value="" style="rounded=0;jumpSize=6;orthogonalLoop=1;jettySize=auto;html=1;strokeColor=#FFB570;strokeWidth=2;entryX=1;entryY=0.75;entryDx=0;entryDy=0;" edge="1" parent="1" target="nQkquUUah0399Bla8zBt-3">
          <mxGeometry relative="1" as="geometry">
            <mxPoint x="780" y="380" as="sourcePoint" />
            <mxPoint x="766" y="235" as="targetPoint" />
          </mxGeometry>
        </mxCell>
        <mxCell id="k4Ie8rZXymBCQABj3Up5-154" value="" style="rounded=0;jumpSize=6;orthogonalLoop=1;jettySize=auto;html=1;strokeColor=#FFB570;strokeWidth=2;entryX=1;entryY=0.75;entryDx=0;entryDy=0;exitX=0.025;exitY=0.75;exitDx=0;exitDy=0;exitPerimeter=0;" edge="1" parent="1">
          <mxGeometry relative="1" as="geometry">
            <mxPoint x="660" y="374.5" as="sourcePoint" />
            <mxPoint x="638.5" y="374.5" as="targetPoint" />
          </mxGeometry>
        </mxCell>
        <mxCell id="k4Ie8rZXymBCQABj3Up5-155" value="" style="endArrow=classic;html=1;strokeColor=#FFB570;strokeWidth=2;jumpSize=6;exitX=0;exitY=0.75;exitDx=0;exitDy=0;entryX=1;entryY=0;entryDx=0;entryDy=0;" edge="1" parent="1">
          <mxGeometry width="50" height="50" relative="1" as="geometry">
            <mxPoint x="536" y="376" as="sourcePoint" />
            <mxPoint x="459" y="378.5" as="targetPoint" />
          </mxGeometry>
        </mxCell>
        <mxCell id="k4Ie8rZXymBCQABj3Up5-156" value="11b" style="ellipse;whiteSpace=wrap;html=1;aspect=fixed;strokeWidth=2;fontFamily=Tahoma;spacingBottom=4;spacingRight=2;strokeColor=#d3d3d3;labelBackgroundColor=none;fillColor=#4D4D4D;align=left;fontColor=#FFFFFF;spacingLeft=0;fontSize=10;" vertex="1" parent="1">
          <mxGeometry x="500" y="383.5" width="20" height="20" as="geometry" />
        </mxCell>
        <mxCell id="k4Ie8rZXymBCQABj3Up5-157" value="tcp/9094" style="edgeLabel;html=1;align=center;verticalAlign=middle;resizable=0;points=[];fontSize=10;labelBackgroundColor=none;rotation=-30;" vertex="1" connectable="0" parent="1">
          <mxGeometry x="1012.5038691916791" y="249.50366339784654" as="geometry" />
        </mxCell>
      </root>
    </mxGraphModel>
  </diagram>
</mxfile>
